<?xml version="1.0" encoding="utf-8" standalone="no"?>
<!DOCTYPE svg PUBLIC "-//W3C//DTD SVG 1.1//EN"
  "http://www.w3.org/Graphics/SVG/1.1/DTD/svg11.dtd">
<svg xmlns:xlink="http://www.w3.org/1999/xlink" width="338.44pt" height="338.4pt" viewBox="0 0 338.44 338.4" xmlns="http://www.w3.org/2000/svg" version="1.1">
 <metadata>
  <rdf:RDF xmlns:dc="http://purl.org/dc/elements/1.1/" xmlns:cc="http://creativecommons.org/ns#" xmlns:rdf="http://www.w3.org/1999/02/22-rdf-syntax-ns#">
   <cc:Work>
    <dc:type rdf:resource="http://purl.org/dc/dcmitype/StillImage"/>
    <dc:date>2025-03-11T14:14:15.084984</dc:date>
    <dc:format>image/svg+xml</dc:format>
    <dc:creator>
     <cc:Agent>
      <dc:title>Matplotlib v3.10.1, https://matplotlib.org/</dc:title>
     </cc:Agent>
    </dc:creator>
   </cc:Work>
  </rdf:RDF>
 </metadata>
 <defs>
  <style type="text/css">*{stroke-linejoin: round; stroke-linecap: butt}</style>
 </defs>
 <g id="figure_1">
  <g id="patch_1">
   <path d="M 0 338.4 
L 338.44 338.4 
L 338.44 0 
L 0 0 
L 0 338.4 
z
" style="fill: none"/>
  </g>
  <g id="axes_1">
   <g id="patch_2">
    <path d="M 0 338.4 
L 333.72 338.4 
L 333.72 0 
L 0 0 
L 0 338.4 
z
" style="fill: none"/>
   </g>
   <g id="Quiver_1">
    <path d="M 166.294082 168.083817 
L 323.108437 88.577078 
L 320.860418 86.910631 
L 333.72 84.6 
L 324.255926 93.607728 
L 324.240273 90.809444 
L 167.425918 170.316183 
L 166.294082 168.083817 
" clip-path="url(#p656e91f688)" style="fill: #d3d3d3"/>
    <path d="M 165.671136 169.590807 
L 127.473402 53.39058 
L 125.486482 55.361058 
L 125.145 42.3 
L 132.619664 53.016214 
L 129.851129 52.608965 
L 168.048864 168.809193 
L 165.671136 169.590807 
" clip-path="url(#p656e91f688)" style="fill: #d3d3d3"/>
    <path d="M 167.905698 169.887491 
L 90.663113 287.376211 
L 93.441999 287.705495 
L 83.43 296.1 
L 87.167813 283.580551 
L 88.571718 286.00123 
L 165.814302 168.512509 
L 167.905698 169.887491 
" clip-path="url(#p656e91f688)" style="fill: #d3d3d3"/>
   </g>
   <g id="Quiver_2">
    <path d="M 166.294082 168.083817 
L 256.364437 122.417078 
L 254.116418 120.750631 
L 266.976 118.44 
L 257.511926 127.447728 
L 257.496273 124.649444 
L 167.425918 170.316183 
L 166.294082 168.083817 
" clip-path="url(#p656e91f688)" style="fill: none; stroke-dasharray: 3.7,1.6; stroke-dashoffset: 0; stroke: #ff0000"/>
   </g>
   <g id="Quiver_3">
    <path d="M 265.787136 118.830807 
L 265.132902 116.84058 
L 263.145982 118.811058 
L 262.8045 105.75 
L 270.279164 116.466214 
L 267.510629 116.058965 
L 268.164864 118.049193 
L 265.787136 118.830807 
" clip-path="url(#p656e91f688)" style="fill: none; stroke-dasharray: 3.7,1.6; stroke-dashoffset: 0; stroke: #008000"/>
   </g>
   <g id="Quiver_4">
    <path d="M 263.850198 106.437491 
L 245.008613 135.096211 
L 247.787499 135.425495 
L 237.7755 143.82 
L 241.513313 131.300551 
L 242.917218 133.72123 
L 261.758802 105.062509 
L 263.850198 106.437491 
" clip-path="url(#p656e91f688)" style="fill: none; stroke-dasharray: 3.7,1.6; stroke-dashoffset: 0; stroke: #0000ff"/>
   </g>
   <g id="Quiver_5">
    <defs>
     <path id="m8a76e4d282" d="M -0.42169 -1.178264 
L 59.889438 -22.763057 
L 57.867796 -24.697895 
L 70.9155 -25.38 
L 60.397933 -17.628313 
L 60.732818 -20.40653 
L 0.42169 1.178264 
L -0.42169 -1.178264 
"/>
    </defs>
    <g clip-path="url(#p656e91f688)">
     <use xlink:href="#m8a76e4d282" x="166.86" y="169.2" style="fill: #ff0000"/>
    </g>
   </g>
   <g id="Quiver_6">
    <path d="M 165.671136 169.590807 
L 148.330902 116.84058 
L 146.343982 118.811058 
L 146.0025 105.75 
L 153.477164 116.466214 
L 150.708629 116.058965 
L 168.048864 168.809193 
L 165.671136 169.590807 
" clip-path="url(#p656e91f688)" style="fill: none; stroke-dasharray: 3.7,1.6; stroke-dashoffset: 0; stroke: #008000"/>
   </g>
   <g id="Quiver_7">
    <path d="M 147.048198 106.437491 
L 136.549613 122.406211 
L 139.328499 122.735495 
L 129.3165 131.13 
L 133.054313 118.610551 
L 134.458218 121.03123 
L 144.956802 105.062509 
L 147.048198 106.437491 
" clip-path="url(#p656e91f688)" style="fill: none; stroke-dasharray: 3.7,1.6; stroke-dashoffset: 0; stroke: #0000ff"/>
   </g>
   <g id="Quiver_8">
    <path d="M 128.750582 130.013817 
L 168.762937 109.727078 
L 166.514918 108.060631 
L 179.3745 105.75 
L 169.910426 114.757728 
L 169.894773 111.959444 
L 129.882418 132.246183 
L 128.750582 130.013817 
" clip-path="url(#p656e91f688)" style="fill: none; stroke-dasharray: 3.7,1.6; stroke-dashoffset: 0; stroke: #ff0000"/>
   </g>
   <g id="Quiver_9">
    <defs>
     <path id="m60c7005741" d="M -1.227796 -0.242163 
L 9.107234 -52.641995 
L 6.409478 -51.898526 
L 12.5145 -63.45 
L 13.776257 -50.445546 
L 11.562827 -52.157669 
L 1.227796 0.242163 
L -1.227796 -0.242163 
"/>
    </defs>
    <g clip-path="url(#p656e91f688)">
     <use xlink:href="#m60c7005741" x="166.86" y="169.2" style="fill: #008000"/>
    </g>
   </g>
   <g id="Quiver_10">
    <path d="M 167.905698 169.887491 
L 115.692113 249.306211 
L 118.470999 249.635495 
L 108.459 258.03 
L 112.196813 245.510551 
L 113.600718 247.93123 
L 165.814302 168.512509 
L 167.905698 169.887491 
" clip-path="url(#p656e91f688)" style="fill: none; stroke-dasharray: 3.7,1.6; stroke-dashoffset: 0; stroke: #0000ff"/>
   </g>
   <g id="Quiver_11">
    <path d="M 107.893082 256.913817 
L 131.219437 245.087078 
L 128.971418 243.420631 
L 141.831 241.11 
L 132.366926 250.117728 
L 132.351273 247.319444 
L 109.024918 259.146183 
L 107.893082 256.913817 
" clip-path="url(#p656e91f688)" style="fill: none; stroke-dasharray: 3.7,1.6; stroke-dashoffset: 0; stroke: #ff0000"/>
   </g>
   <g id="Quiver_12">
    <path d="M 140.642136 241.500807 
L 139.987902 239.51058 
L 138.000982 241.481058 
L 137.6595 228.42 
L 145.134164 239.136214 
L 142.365629 238.728965 
L 143.019864 240.719193 
L 140.642136 241.500807 
" clip-path="url(#p656e91f688)" style="fill: none; stroke-dasharray: 3.7,1.6; stroke-dashoffset: 0; stroke: #008000"/>
   </g>
   <g id="Quiver_13">
    <defs>
     <path id="m9ac5b823c0" d="M 1.122418 0.553448 
L -23.097052 49.671683 
L -20.298768 49.656161 
L -29.2005 59.22 
L -27.033278 46.335474 
L -25.341889 48.564788 
L -1.122418 -0.553448 
L 1.122418 0.553448 
"/>
    </defs>
    <g clip-path="url(#p656e91f688)">
     <use xlink:href="#m9ac5b823c0" x="166.86" y="169.2" style="fill: #0000ff"/>
    </g>
   </g>
   <g id="matplotlib.axis_1"/>
   <g id="matplotlib.axis_2"/>
   <g id="patch_3">
    <path d="M 166.86 338.4 
L 166.86 0 
" style="fill: none; stroke: #000000; stroke-width: 0.8; stroke-linejoin: miter; stroke-linecap: square"/>
   </g>
   <g id="patch_4">
    <path d="M 333.72 338.4 
L 333.72 0 
" style="fill: none"/>
   </g>
   <g id="patch_5">
    <path d="M 0 169.2 
L 333.72 169.2 
" style="fill: none; stroke: #000000; stroke-width: 0.8; stroke-linejoin: miter; stroke-linecap: square"/>
   </g>
   <g id="patch_6">
    <path d="M 0 0 
L 333.72 0 
" style="fill: none"/>
   </g>
   <g id="text_1">
    <!-- I -->
    <g style="fill: #808080" transform="translate(333.72 84.6) scale(0.16 -0.16)">
     <defs>
      <path id="DejaVuSans-49" d="M 628 4666 
L 1259 4666 
L 1259 0 
L 628 0 
L 628 4666 
z
" transform="scale(0.015625)"/>
     </defs>
     <use xlink:href="#DejaVuSans-49"/>
    </g>
   </g>
   <g id="text_2">
    <!-- am -->
    <g style="fill: #808080" transform="translate(125.145 42.3) scale(0.16 -0.16)">
     <defs>
      <path id="DejaVuSans-61" d="M 2194 1759 
Q 1497 1759 1228 1600 
Q 959 1441 959 1056 
Q 959 750 1161 570 
Q 1363 391 1709 391 
Q 2188 391 2477 730 
Q 2766 1069 2766 1631 
L 2766 1759 
L 2194 1759 
z
M 3341 1997 
L 3341 0 
L 2766 0 
L 2766 531 
Q 2569 213 2275 61 
Q 1981 -91 1556 -91 
Q 1019 -91 701 211 
Q 384 513 384 1019 
Q 384 1609 779 1909 
Q 1175 2209 1959 2209 
L 2766 2209 
L 2766 2266 
Q 2766 2663 2505 2880 
Q 2244 3097 1772 3097 
Q 1472 3097 1187 3025 
Q 903 2953 641 2809 
L 641 3341 
Q 956 3463 1253 3523 
Q 1550 3584 1831 3584 
Q 2591 3584 2966 3190 
Q 3341 2797 3341 1997 
z
" transform="scale(0.015625)"/>
      <path id="DejaVuSans-6d" d="M 3328 2828 
Q 3544 3216 3844 3400 
Q 4144 3584 4550 3584 
Q 5097 3584 5394 3201 
Q 5691 2819 5691 2113 
L 5691 0 
L 5113 0 
L 5113 2094 
Q 5113 2597 4934 2840 
Q 4756 3084 4391 3084 
Q 3944 3084 3684 2787 
Q 3425 2491 3425 1978 
L 3425 0 
L 2847 0 
L 2847 2094 
Q 2847 2600 2669 2842 
Q 2491 3084 2119 3084 
Q 1678 3084 1418 2786 
Q 1159 2488 1159 1978 
L 1159 0 
L 581 0 
L 581 3500 
L 1159 3500 
L 1159 2956 
Q 1356 3278 1631 3431 
Q 1906 3584 2284 3584 
Q 2666 3584 2933 3390 
Q 3200 3197 3328 2828 
z
" transform="scale(0.015625)"/>
     </defs>
     <use xlink:href="#DejaVuSans-61"/>
     <use xlink:href="#DejaVuSans-6d" transform="translate(61.279297 0)"/>
    </g>
   </g>
   <g id="text_3">
    <!-- Sam -->
    <g style="fill: #808080" transform="translate(83.43 308.79) scale(0.16 -0.16)">
     <defs>
      <path id="DejaVuSans-53" d="M 3425 4513 
L 3425 3897 
Q 3066 4069 2747 4153 
Q 2428 4238 2131 4238 
Q 1616 4238 1336 4038 
Q 1056 3838 1056 3469 
Q 1056 3159 1242 3001 
Q 1428 2844 1947 2747 
L 2328 2669 
Q 3034 2534 3370 2195 
Q 3706 1856 3706 1288 
Q 3706 609 3251 259 
Q 2797 -91 1919 -91 
Q 1588 -91 1214 -16 
Q 841 59 441 206 
L 441 856 
Q 825 641 1194 531 
Q 1563 422 1919 422 
Q 2459 422 2753 634 
Q 3047 847 3047 1241 
Q 3047 1584 2836 1778 
Q 2625 1972 2144 2069 
L 1759 2144 
Q 1053 2284 737 2584 
Q 422 2884 422 3419 
Q 422 4038 858 4394 
Q 1294 4750 2059 4750 
Q 2388 4750 2728 4690 
Q 3069 4631 3425 4513 
z
" transform="scale(0.015625)"/>
     </defs>
     <use xlink:href="#DejaVuSans-53"/>
     <use xlink:href="#DejaVuSans-61" transform="translate(63.476562 0)"/>
     <use xlink:href="#DejaVuSans-6d" transform="translate(124.755859 0)"/>
    </g>
   </g>
   <g id="text_4">
    <!-- I$^\prime$ -->
    <g transform="translate(246.1185 152.28) scale(0.16 -0.16)">
     <defs>
      <path id="Cmsy10-30" d="M 225 347 
Q 184 359 184 409 
L 966 3316 
Q 1003 3434 1093 3506 
Q 1184 3578 1300 3578 
Q 1450 3578 1564 3479 
Q 1678 3381 1678 3231 
Q 1678 3166 1644 3084 
L 488 319 
Q 466 275 428 275 
Q 394 275 320 306 
Q 247 338 225 347 
z
" transform="scale(0.015625)"/>
     </defs>
     <use xlink:href="#DejaVuSans-49" transform="translate(0 0.584375)"/>
     <use xlink:href="#Cmsy10-30" transform="translate(30.449219 38.865625) scale(0.7)"/>
    </g>
   </g>
   <g id="text_5">
    <!-- am$^\prime$ -->
    <g transform="translate(187.7175 114.21) scale(0.16 -0.16)">
     <use xlink:href="#DejaVuSans-61" transform="translate(0 0.584375)"/>
     <use xlink:href="#DejaVuSans-6d" transform="translate(61.279297 0.584375)"/>
     <use xlink:href="#Cmsy10-30" transform="translate(159.648438 38.865625) scale(0.7)"/>
    </g>
   </g>
   <g id="text_6">
    <!-- Sam$^\prime$ -->
    <g transform="translate(146.0025 236.88) scale(0.16 -0.16)">
     <use xlink:href="#DejaVuSans-53" transform="translate(0 0.584375)"/>
     <use xlink:href="#DejaVuSans-61" transform="translate(63.476562 0.584375)"/>
     <use xlink:href="#DejaVuSans-6d" transform="translate(124.755859 0.584375)"/>
     <use xlink:href="#Cmsy10-30" transform="translate(223.125 38.865625) scale(0.7)"/>
    </g>
   </g>
  </g>
 </g>
 <defs>
  <clipPath id="p656e91f688">
   <rect x="0" y="0" width="333.72" height="338.4"/>
  </clipPath>
 </defs>
</svg>
