<svg xmlns="http://www.w3.org/2000/svg" xmlns:xlink="http://www.w3.org/1999/xlink" xmlns:inkscape="http://www.inkscape.org/namespaces/inkscape" version="1.1" width="267" height="159" viewBox="0 0 267 159">
<defs>
<clipPath id="clip_0">
<path transform="matrix(1,0,0,-1,-10,169)" d="M0 0H288V180H0Z"/>
</clipPath>
<clipPath id="clip_1">
<path transform="matrix(1,0,0,-1,-10,169)" d="M43.385759 40.618318H269.728V165.74076H43.385759Z"/>
</clipPath>
<clipPath id="clip_2">
<path transform="matrix(1,0,0,-1,-10,169)" d="M43.385759 40.618318H269.728V165.74076H43.385759Z"/>
</clipPath>
<clipPath id="clip_3">
<path transform="matrix(1,0,0,-1,-10,169)" d="M43.385759 40.618318H269.728V165.74076H43.385759Z"/>
</clipPath>
<clipPath id="clip_4">
<path transform="matrix(1,0,0,-1,-10,169)" d="M43.385759 40.618318H269.728V165.74076H43.385759Z"/>
</clipPath>
<clipPath id="clip_5">
<path transform="matrix(1,0,0,-1,-10,169)" d="M43.385759 40.618318H269.728V165.74076H43.385759Z"/>
</clipPath>
<clipPath id="clip_6">
<path transform="matrix(1,0,0,-1,-10,169)" d="M43.385759 40.618318H269.728V165.74076H43.385759Z"/>
</clipPath>
<clipPath id="clip_7">
<path transform="matrix(1,0,0,-1,-10,169)" d="M43.385759 40.618318H269.728V165.74076H43.385759Z"/>
</clipPath>
<clipPath id="clip_8">
<path transform="matrix(1,0,0,-1,-10,169)" d="M43.385759 40.618318H269.728V165.74076H43.385759Z"/>
</clipPath>
<clipPath id="clip_9">
<path transform="matrix(1,0,0,-1,-10,169)" d="M43.385759 40.618318H269.728V165.74076H43.385759Z"/>
</clipPath>
<clipPath id="clip_10">
<path transform="matrix(1,0,0,-1,-10,169)" d="M43.385759 40.618318H269.728V165.74076H43.385759Z"/>
</clipPath>
<clipPath id="clip_11">
<path transform="matrix(1,0,0,-1,-10,169)" d="M43.385759 40.618318H269.728V165.74076H43.385759Z"/>
</clipPath>
<clipPath id="clip_12">
<path transform="matrix(1,0,0,-1,-10,169)" d="M43.385759 40.618318H269.728V165.74076H43.385759Z"/>
</clipPath>
<clipPath id="clip_13">
<path transform="matrix(1,0,0,-1,-10,169)" d="M43.385759 40.618318H269.728V165.74076H43.385759Z"/>
</clipPath>
<clipPath id="clip_14">
<path transform="matrix(1,0,0,-1,-10,169)" d="M43.385759 40.618318H269.728V165.74076H43.385759Z"/>
</clipPath>
<clipPath id="clip_15">
<path transform="matrix(1,0,0,-1,-10,169)" d="M43.385759 40.618318H269.728V165.74076H43.385759Z"/>
</clipPath>
<clipPath id="clip_16">
<path transform="matrix(1,0,0,-1,-10,169)" d="M43.385759 40.618318H269.728V165.74076H43.385759Z"/>
</clipPath>
<clipPath id="clip_17">
<path transform="matrix(1,0,0,-1,-10,169)" d="M43.385759 40.618318H269.728V165.74076H43.385759Z"/>
</clipPath>
<clipPath id="clip_18">
<path transform="matrix(1,0,0,-1,-10,169)" d="M43.385759 40.618318H269.728V165.74076H43.385759Z"/>
</clipPath>
<clipPath id="clip_19">
<path transform="matrix(1,0,0,-1,-10,169)" d="M43.385759 40.618318H269.728V165.74076H43.385759Z"/>
</clipPath>
<clipPath id="clip_20">
<path transform="matrix(1,0,0,-1,-10,169)" d="M43.385759 40.618318H269.728V165.74076H43.385759Z"/>
</clipPath>
<clipPath id="clip_21">
<path transform="matrix(1,0,0,-1,-10,169)" d="M43.385759 40.618318H269.728V165.74076H43.385759Z"/>
</clipPath>
<clipPath id="clip_22">
<path transform="matrix(1,0,0,-1,-10,169)" d="M43.385759 40.618318H269.728V165.74076H43.385759Z"/>
</clipPath>
<clipPath id="clip_23">
<path transform="matrix(1,0,0,-1,-10,169)" d="M43.385759 40.618318H269.728V165.74076H43.385759Z"/>
</clipPath>
<clipPath id="clip_24">
<path transform="matrix(1,0,0,-1,-10,169)" d="M43.385759 40.618318H269.728V165.74076H43.385759Z"/>
</clipPath>
<clipPath id="clip_25">
<path transform="matrix(1,0,0,-1,-10,169)" d="M43.385759 40.618318H269.728V165.74076H43.385759Z"/>
</clipPath>
<clipPath id="clip_26">
<path transform="matrix(1,0,0,-1,-10,169)" d="M43.385759 40.618318H269.728V165.74076H43.385759Z"/>
</clipPath>
<clipPath id="clip_27">
<path transform="matrix(1,0,0,-1,-10,169)" d="M43.385759 40.618318H269.728V165.74076H43.385759Z"/>
</clipPath>
<clipPath id="clip_28">
<path transform="matrix(1,0,0,-1,-10,169)" d="M43.385759 40.618318H269.728V165.74076H43.385759Z"/>
</clipPath>
<clipPath id="clip_29">
<path transform="matrix(1,0,0,-1,-10,169)" d="M43.385759 40.618318H269.728V165.74076H43.385759Z"/>
</clipPath>
<clipPath id="clip_30">
<path transform="matrix(1,0,0,-1,-10,169)" d="M43.385759 40.618318H269.728V165.74076H43.385759Z"/>
</clipPath>
<clipPath id="clip_31">
<path transform="matrix(1,0,0,-1,-10,169)" d="M43.385759 40.618318H269.728V165.74076H43.385759Z"/>
</clipPath>
<clipPath id="clip_32">
<path transform="matrix(1,0,0,-1,-10,169)" d="M43.385759 40.618318H269.728V165.74076H43.385759Z"/>
</clipPath>
<clipPath id="clip_33">
<path transform="matrix(1,0,0,-1,-10,169)" d="M43.385759 40.618318H269.728V165.74076H43.385759Z"/>
</clipPath>
<clipPath id="clip_34">
<path transform="matrix(1,0,0,-1,-10,169)" d="M43.385759 40.618318H269.728V165.74076H43.385759Z"/>
</clipPath>
<clipPath id="clip_35">
<path transform="matrix(1,0,0,-1,-10,169)" d="M43.385759 40.618318H269.728V165.74076H43.385759Z"/>
</clipPath>
<clipPath id="clip_36">
<path transform="matrix(1,0,0,-1,-10,169)" d="M43.385759 40.618318H269.728V165.74076H43.385759Z"/>
</clipPath>
<clipPath id="clip_37">
<path transform="matrix(1,0,0,-1,-10,169)" d="M43.385759 40.618318H269.728V165.74076H43.385759Z"/>
</clipPath>
<clipPath id="clip_38">
<path transform="matrix(1,0,0,-1,-10,169)" d="M43.385759 40.618318H269.728V165.74076H43.385759Z"/>
</clipPath>
<clipPath id="clip_39">
<path transform="matrix(1,0,0,-1,-10,169)" d="M43.385759 40.618318H269.728V165.74076H43.385759Z"/>
</clipPath>
<clipPath id="clip_40">
<path transform="matrix(1,0,0,-1,-10,169)" d="M43.385759 40.618318H269.728V165.74076H43.385759Z"/>
</clipPath>
<clipPath id="clip_41">
<path transform="matrix(1,0,0,-1,-10,169)" d="M43.385759 40.618318H269.728V165.74076H43.385759Z"/>
</clipPath>
<clipPath id="clip_42">
<path transform="matrix(1,0,0,-1,-10,169)" d="M43.385759 40.618318H269.728V165.74076H43.385759Z"/>
</clipPath>
<clipPath id="clip_43">
<path transform="matrix(1,0,0,-1,-10,169)" d="M43.385759 40.618318H269.728V165.74076H43.385759Z"/>
</clipPath>
<clipPath id="clip_44">
<path transform="matrix(1,0,0,-1,-10,169)" d="M43.385759 40.618318H269.728V165.74076H43.385759Z"/>
</clipPath>
<clipPath id="clip_45">
<path transform="matrix(1,0,0,-1,-10,169)" d="M43.385759 40.618318H269.728V165.74076H43.385759Z"/>
</clipPath>
<clipPath id="clip_46">
<path transform="matrix(1,0,0,-1,-10,169)" d="M43.385759 40.618318H269.728V165.74076H43.385759Z"/>
</clipPath>
<clipPath id="clip_47">
<path transform="matrix(1,0,0,-1,-10,169)" d="M43.385759 40.618318H269.728V165.74076H43.385759Z"/>
</clipPath>
<clipPath id="clip_48">
<path transform="matrix(1,0,0,-1,-10,169)" d="M43.385759 40.618318H269.728V165.74076H43.385759Z"/>
</clipPath>
<clipPath id="clip_49">
<path transform="matrix(1,0,0,-1,-10,169)" d="M43.385759 40.618318H269.728V165.74076H43.385759Z"/>
</clipPath>
</defs>
<g>
<g>
<g clip-path="url(#clip_0)">
<path transform="matrix(1,0,0,-1,-10,169)" d="M0 0H288V180H0Z" fill="#ffffff"/>
<path transform="matrix(1,0,0,-1,-10,169)" d="M43.385759 40.618318H269.728V165.74076H43.385759Z" fill="#ffffff"/>
<g clip-path="url(#clip_1)">
<path transform="matrix(1,0,0,-1,-10,169)" stroke-width=".8" stroke-linecap="square" stroke-linejoin="round" fill="none" stroke="#b0b0b0" stroke-opacity=".5" d="M43.385759 40.618318V165.74076"/>
</g>
<path transform="matrix(1,0,0,-1,-10,169)" d="M43.385759 40.618318V37.118318"/>
<path transform="matrix(1,0,0,-1,-10,169)" stroke-width=".8" stroke-linecap="butt" stroke-linejoin="round" fill="none" stroke="#000000" d="M43.385759 40.618318V37.118318"/>
<text xml:space="preserve" transform="matrix(1 0 -0 1 -10 169)" font-size="9.96264" font-family="CMR10"><tspan y="-26.699818" x="40.89509">1</tspan></text>
<g clip-path="url(#clip_2)">
<path transform="matrix(1,0,0,-1,-10,169)" stroke-width=".8" stroke-linecap="square" stroke-linejoin="round" fill="none" stroke="#b0b0b0" stroke-opacity=".5" d="M61.9771 40.618318V165.74076"/>
</g>
<path transform="matrix(1,0,0,-1,-10,169)" d="M61.9771 40.618318V37.118318"/>
<path transform="matrix(1,0,0,-1,-10,169)" stroke-width=".8" stroke-linecap="butt" stroke-linejoin="round" fill="none" stroke="#000000" d="M61.9771 40.618318V37.118318"/>
<text xml:space="preserve" transform="matrix(1 0 -0 1 -10 169)" font-size="9.96264" font-family="CMR10"><tspan y="-26.699818" x="56.995767 61.977087">64</tspan></text>
<g clip-path="url(#clip_3)">
<path transform="matrix(1,0,0,-1,-10,169)" stroke-width=".8" stroke-linecap="square" stroke-linejoin="round" fill="none" stroke="#b0b0b0" stroke-opacity=".5" d="M80.86355 40.618318V165.74076"/>
</g>
<path transform="matrix(1,0,0,-1,-10,169)" d="M80.86355 40.618318V37.118318"/>
<path transform="matrix(1,0,0,-1,-10,169)" stroke-width=".8" stroke-linecap="butt" stroke-linejoin="round" fill="none" stroke="#000000" d="M80.86355 40.618318V37.118318"/>
<text xml:space="preserve" transform="matrix(1 0 -0 1 -10 169)" font-size="9.96264" font-family="CMR10"><tspan y="-26.699818" x="73.39154 78.37286 83.35419">128</tspan></text>
<g clip-path="url(#clip_4)">
<path transform="matrix(1,0,0,-1,-10,169)" stroke-width=".8" stroke-linecap="square" stroke-linejoin="round" fill="none" stroke="#b0b0b0" stroke-opacity=".5" d="M118.63644 40.618318V165.74076"/>
</g>
<path transform="matrix(1,0,0,-1,-10,169)" d="M118.63644 40.618318V37.118318"/>
<path transform="matrix(1,0,0,-1,-10,169)" stroke-width=".8" stroke-linecap="butt" stroke-linejoin="round" fill="none" stroke="#000000" d="M118.63644 40.618318V37.118318"/>
<text xml:space="preserve" transform="matrix(1 0 -0 1 -10 169)" font-size="9.96264" font-family="CMR10"><tspan y="-26.699818" x="111.16443 116.14575 121.127079">256</tspan></text>
<g clip-path="url(#clip_5)">
<path transform="matrix(1,0,0,-1,-10,169)" stroke-width=".8" stroke-linecap="square" stroke-linejoin="round" fill="none" stroke="#b0b0b0" stroke-opacity=".5" d="M194.18222 40.618318V165.74076"/>
</g>
<path transform="matrix(1,0,0,-1,-10,169)" d="M194.18222 40.618318V37.118318"/>
<path transform="matrix(1,0,0,-1,-10,169)" stroke-width=".8" stroke-linecap="butt" stroke-linejoin="round" fill="none" stroke="#000000" d="M194.18222 40.618318V37.118318"/>
<text xml:space="preserve" transform="matrix(1 0 -0 1 -10 169)" font-size="9.96264" font-family="CMR10"><tspan y="-26.699818" x="186.71022 191.69155 196.67287">512</tspan></text>
<g clip-path="url(#clip_6)">
<path transform="matrix(1,0,0,-1,-10,169)" stroke-width=".8" stroke-linecap="square" stroke-linejoin="round" fill="none" stroke="#b0b0b0" stroke-opacity=".5" d="M269.728 40.618318V165.74076"/>
</g>
<path transform="matrix(1,0,0,-1,-10,169)" d="M269.728 40.618318V37.118318"/>
<path transform="matrix(1,0,0,-1,-10,169)" stroke-width=".8" stroke-linecap="butt" stroke-linejoin="round" fill="none" stroke="#000000" d="M269.728 40.618318V37.118318"/>
<text xml:space="preserve" transform="matrix(1 0 -0 1 -10 169)" font-size="9.96264" font-family="CMR10"><tspan y="-26.699818" x="262.25599 267.2373 272.21864">768</tspan></text>
<text xml:space="preserve" transform="matrix(1 0 -0 1 -10 169)" font-size="9.96264" font-family="CMR10"><tspan y="-13.29066" x="70.50441 77.27901 84.47203 95.264888 99.68829 104.66962 112.9685 118.77451 123.75584 129.2851 133.70851 138.96103 142.82654 150.0727 153.9382 159.46747 163.89089 168.87221 174.40148 181.64763 186.07105 191.05237 196.58164 201.00505 205.98638 209.85189 214.2753 219.80457 224.78589 228.6514 233.07482 238.60408">PCAcomponents(headsconcatenated)</tspan></text>
<g clip-path="url(#clip_7)">
<path transform="matrix(1,0,0,-1,-10,169)" stroke-width=".8" stroke-linecap="square" stroke-linejoin="round" fill="none" stroke="#b0b0b0" stroke-opacity=".5" d="M43.385759 40.618318H269.728"/>
</g>
<path transform="matrix(1,0,0,-1,-10,169)" d="M43.385759 40.618318H39.885759"/>
<path transform="matrix(1,0,0,-1,-10,169)" stroke-width=".8" stroke-linecap="butt" stroke-linejoin="round" fill="none" stroke="#000000" d="M43.385759 40.618318H39.885759"/>
<text xml:space="preserve" transform="matrix(1 0 -0 1 -10 169)" font-size="9.96264" font-family="CMR10"><tspan y="-37.15907" x="23.655676">0</tspan></text>
<text xml:space="preserve" transform="matrix(1 0 -0 1 -10 169)" font-size="9.96264" font-family="CMMI10" font-style="italic"><tspan y="-37.15907" x="28.63701">.</tspan></text>
<text xml:space="preserve" transform="matrix(1 0 -0 1 -10 169)" font-size="9.96264" font-family="CMR10"><tspan y="-37.15907" x="31.404419">0</tspan></text>
<g clip-path="url(#clip_8)">
<path transform="matrix(1,0,0,-1,-10,169)" stroke-width=".8" stroke-linecap="square" stroke-linejoin="round" fill="none" stroke="#b0b0b0" stroke-opacity=".5" d="M43.385759 103.179538H269.728"/>
</g>
<path transform="matrix(1,0,0,-1,-10,169)" d="M43.385759 103.179538H39.885759"/>
<path transform="matrix(1,0,0,-1,-10,169)" stroke-width=".8" stroke-linecap="butt" stroke-linejoin="round" fill="none" stroke="#000000" d="M43.385759 103.179538H39.885759"/>
<text xml:space="preserve" transform="matrix(1 0 -0 1 -10 169)" font-size="9.96264" font-family="CMR10"><tspan y="-99.72028" x="23.655676">0</tspan></text>
<text xml:space="preserve" transform="matrix(1 0 -0 1 -10 169)" font-size="9.96264" font-family="CMMI10" font-style="italic"><tspan y="-99.72028" x="28.63701">.</tspan></text>
<text xml:space="preserve" transform="matrix(1 0 -0 1 -10 169)" font-size="9.96264" font-family="CMR10"><tspan y="-99.72028" x="31.404419">5</tspan></text>
<g clip-path="url(#clip_9)">
<path transform="matrix(1,0,0,-1,-10,169)" stroke-width=".8" stroke-linecap="square" stroke-linejoin="round" fill="none" stroke="#b0b0b0" stroke-opacity=".5" d="M43.385759 153.2285H269.728"/>
</g>
<path transform="matrix(1,0,0,-1,-10,169)" d="M43.385759 153.2285H39.885759"/>
<path transform="matrix(1,0,0,-1,-10,169)" stroke-width=".8" stroke-linecap="butt" stroke-linejoin="round" fill="none" stroke="#000000" d="M43.385759 153.2285H39.885759"/>
<text xml:space="preserve" transform="matrix(1 0 -0 1 -10 169)" font-size="9.96264" font-family="CMR10"><tspan y="-149.76926" x="23.655676">0</tspan></text>
<text xml:space="preserve" transform="matrix(1 0 -0 1 -10 169)" font-size="9.96264" font-family="CMMI10" font-style="italic"><tspan y="-149.76926" x="28.63701">.</tspan></text>
<text xml:space="preserve" transform="matrix(1 0 -0 1 -10 169)" font-size="9.96264" font-family="CMR10"><tspan y="-149.76926" x="31.404419">9</tspan></text>
<g clip-path="url(#clip_10)">
<path transform="matrix(1,0,0,-1,-10,169)" stroke-width=".8" stroke-linecap="square" stroke-linejoin="round" fill="none" stroke="#b0b0b0" stroke-opacity=".5" d="M43.385759 165.74076H269.728"/>
</g>
<path transform="matrix(1,0,0,-1,-10,169)" d="M43.385759 165.74076H39.885759"/>
<path transform="matrix(1,0,0,-1,-10,169)" stroke-width=".8" stroke-linecap="butt" stroke-linejoin="round" fill="none" stroke="#000000" d="M43.385759 165.74076H39.885759"/>
<text xml:space="preserve" transform="matrix(1 0 -0 1 -10 169)" font-size="9.96264" font-family="CMR10"><tspan y="-162.2815" x="23.655676">1</tspan></text>
<text xml:space="preserve" transform="matrix(1 0 -0 1 -10 169)" font-size="9.96264" font-family="CMMI10" font-style="italic"><tspan y="-162.2815" x="28.63701">.</tspan></text>
<text xml:space="preserve" transform="matrix(1 0 -0 1 -10 169)" font-size="9.96264" font-family="CMR10"><tspan y="-162.2815" x="31.404419">0</tspan></text>
<text xml:space="preserve" transform="matrix(0 -1 1 0 -10 169)" font-size="9.96264" font-family="CMR10"><tspan y="17.718499" x="64.546558 68.96997 73.951297 79.48056 83.34606 88.87533 92.77072 97.19414 106.04428 110.74111 115.722438 119.61783 122.37748 127.3588 132.88806 137.31148">capturedvariance</tspan></text>
<g clip-path="url(#clip_11)">
<path transform="matrix(1,0,0,-1,-10,169)" stroke-width="1.5" stroke-linecap="square" stroke-linejoin="round" fill="none" stroke="#e74c3c" stroke-opacity=".1" d="M43.090658 61.19121 43.680856 82.755428 44.271059 95.299938 45.15636 105.51966 45.74656 109.66147 46.926965 115.19138 48.10737 119.57046 49.28777 123.136318 50.468175 126.16466 51.943677 129.22676 53.41918 131.79964 55.189786 134.47104 57.25549 137.17368 59.911397 140.22492 62.2722 142.61127 65.223209 145.24404 67.87911 147.30902 71.12522 149.52252 74.37133 151.46822 77.61744 153.17893 81.45375 154.90985 85.290058 156.38915 89.71657 157.85538 93.84798 159.01811 99.15979 160.26494 104.7667 161.31897 111.25892 162.29991 118.046237 163.10517 125.71886 163.80429 134.86698 164.40897 145.7857 164.90454 159.36034 165.28922 177.36148 165.55765 203.33034 165.70255 260.87498 165.74074 269.4329 165.74076"/>
</g>
<g clip-path="url(#clip_12)">
<path transform="matrix(1,0,0,-1,-10,169)" stroke-width="1.5" stroke-linecap="square" stroke-linejoin="round" fill="none" stroke="#f1c40f" stroke-opacity=".1" d="M43.090658 44.678819 43.975957 52.10861 44.86126 57.205083 45.74656 61.071683 46.926965 64.86827 48.99267 70.44737 51.353475 75.9994 53.71428 80.997768 56.370187 86.0918 59.321195 91.26727 62.567304 96.45484 66.40361 102.09349 69.94482 106.85033 73.78113 111.621509 77.61744 116.00392 81.45375 120.03472 85.58516 124.04515 89.42146 127.47149 93.55288 130.86214 97.979389 134.19022 102.4059 137.2197 106.832408 139.98303 111.84912 142.83939 116.57073 145.27587 121.882549 147.75048 127.19436 149.97457 132.80127 152.0726 138.40819 153.93433 144.3102 155.66855 150.80242 157.34223 157.58972 158.85955 164.67215 160.21138 172.63986 161.48415 180.90268 162.56357 189.7557 163.47866 199.19893 164.23084 209.52745 164.82729 221.33148 165.27881 234.90612 165.57578 252.31707 165.7216 269.4329 165.74076"/>
</g>
<g clip-path="url(#clip_13)">
<path transform="matrix(1,0,0,-1,-10,169)" stroke-width="1.5" stroke-linecap="square" stroke-linejoin="round" fill="none" stroke="#2980b9" stroke-opacity=".1" d="M43.090658 44.370599 43.680856 50.260499 44.86126 58.62997 45.74656 63.27875 47.222066 69.31431 48.40247 73.30444 49.87797 77.71733 51.353475 81.36335 53.71428 86.559688 55.779985 90.564838 58.140794 94.585819 61.091798 99.18025 64.337909 103.82732 67.87911 108.51664 71.71542 113.16865 75.551738 117.424 79.38804 121.33328 83.519458 125.20306 87.65086 128.75684 91.48717 131.7771 96.20878 135.17435 100.63529 138.08919 105.3569 140.9317 110.078517 143.51355 114.800128 145.85503 120.11194 148.24234 125.71886 150.49675 131.32576 152.51284 136.93268 154.30757 143.12979 156.06339 149.3269 157.6027 156.11423 159.06087 163.19664 160.36399 171.16437 161.59397 179.72228 162.66771 188.5753 163.54799 198.31363 164.28363 209.23235 164.88083 221.33148 165.3146 235.4963 165.59598 254.38277 165.72863 269.4329 165.74076"/>
</g>
<g clip-path="url(#clip_14)">
<path transform="matrix(1,0,0,-1,-10,169)" stroke-width="1.5" stroke-linecap="square" stroke-linejoin="round" fill="none" stroke="#e74c3c" stroke-opacity=".1" d="M43.090658 54.217748 43.975957 88.113338 44.86126 110.288768 45.74656 129.56221 46.631864 142.37577 47.517168 146.07227 48.10737 147.46411 48.99267 148.98033 50.173074 150.4777 51.353475 151.50507 52.82898 152.50249 55.189786 153.82924 58.43589 155.3564 61.682 156.6335 65.51831 157.91855 69.94482 159.17012 74.96153 160.33356 80.56844 161.38956 86.76556 162.32402 93.84798 163.1396 102.110797 163.8542 111.554019 164.4405 123.06294 164.92562 138.11309 165.30945 157.29463 165.56249 186.8047 165.70442 254.08766 165.74074 269.4329 165.74076"/>
</g>
<g clip-path="url(#clip_15)">
<path transform="matrix(1,0,0,-1,-10,169)" stroke-width="1.5" stroke-linecap="square" stroke-linejoin="round" fill="none" stroke="#f1c40f" stroke-opacity=".1" d="M43.090658 45.196729 44.271059 59.557886 45.15636 67.569667 46.04166 74.04535 46.926965 78.78696 47.517168 80.86301 48.697568 83.8886 50.173074 87.16239 51.943677 90.57063 54.599584 95.14033 57.55059 99.759029 60.796697 104.450649 64.337909 109.16766 67.87911 113.55715 71.42033 117.61188 74.96153 121.36941 78.79784 125.13833 82.63415 128.59564 86.47046 131.77944 90.30677 134.70156 94.73328 137.80535 98.864688 140.42827 103.5863 143.1574 108.01281 145.46987 113.029529 147.8302 118.046237 149.95218 123.653148 152.06256 129.26006 153.92948 135.45717 155.74117 141.6543 157.32506 148.1465 158.75836 155.22893 160.10002 163.19664 161.3613 171.45946 162.43247 180.60759 163.37499 190.641 164.16849 200.96953 164.7587 212.77356 165.21628 226.6433 165.53099 244.34934 165.70349 269.4329 165.74076"/>
</g>
<g clip-path="url(#clip_16)">
<path transform="matrix(1,0,0,-1,-10,169)" stroke-width="1.5" stroke-linecap="square" stroke-linejoin="round" fill="none" stroke="#2980b9" stroke-opacity=".1" d="M43.090658 43.357759 44.86126 58.64176 46.631864 71.253208 47.517168 75.737888 48.697568 80.17035 49.87797 83.66791 51.058374 86.58954 52.238779 89.08842 54.00938 92.30891 56.075086 95.68011 59.321195 100.51996 62.862405 105.40451 66.69871 110.27372 69.94482 114.08026 73.78113 118.24623 77.61744 122.10166 81.74885 125.93409 85.58516 129.20365 90.011669 132.6799 94.143077 135.6494 98.56959 138.5681 103.2912 141.3967 108.307918 144.11565 113.029529 146.4391 118.046237 148.66666 123.653148 150.89275 129.26006 152.87825 135.45717 154.82094 141.6543 156.52013 148.73671 158.202 155.81912 159.63666 163.19664 160.90277 171.16437 162.03963 179.42719 162.99797 188.2802 163.81278 198.31363 164.50177 209.23235 165.0324 221.92168 165.41735 237.56203 165.65369 259.69459 165.73873 269.4329 165.74076"/>
</g>
<g clip-path="url(#clip_17)">
<path transform="matrix(1,0,0,-1,-10,169)" stroke-width="1.5" stroke-linecap="square" stroke-linejoin="round" fill="none" stroke="#e74c3c" stroke-opacity=".1" d="M43.090658 55.388898 43.680856 80.655529 44.56616 107.95613 45.15636 121.22588 45.74656 130.45514 46.631864 139.20944 47.222066 142.93224 47.812269 145.00884 48.40247 146.40761 49.28777 147.8836 50.468175 149.30879 51.943677 150.7064 53.71428 152.03673 55.779985 153.32123 58.43589 154.6685 61.682 156.06357 65.223209 157.35388 69.354618 158.61357 73.78113 159.73357 78.50274 160.72354 84.10965 161.68556 90.89697 162.60047 98.27449 163.36312 106.832408 164.02469 116.86583 164.57639 129.26006 165.03447 145.1955 165.38245 166.44275 165.60713 200.67444 165.72235 269.4329 165.74076"/>
</g>
<g clip-path="url(#clip_18)">
<path transform="matrix(1,0,0,-1,-10,169)" stroke-width="1.5" stroke-linecap="square" stroke-linejoin="round" fill="none" stroke="#f1c40f" stroke-opacity=".1" d="M43.090658 44.973718 44.271059 57.683546 45.45146 67.6793 46.04166 71.698169 46.926965 76.44017 47.812269 79.749889 48.697568 82.12747 50.173074 85.541889 52.53388 90.34202 55.189786 95.11011 57.84569 99.38247 60.796697 103.722988 64.04281 108.09903 67.28891 112.11331 70.830127 116.14676 74.66643 120.17319 78.50274 123.87675 82.63415 127.54686 86.76556 130.92256 90.89697 134.00809 95.02838 136.84455 99.74999 139.79924 104.1765 142.32453 109.193218 144.92205 114.20992 147.2663 119.521739 149.50594 125.42375 151.73154 131.03067 153.6073 136.93268 155.34963 143.4249 157.03015 150.2122 158.54784 157.29463 159.91207 165.26235 161.20284 173.52516 162.3011 182.08309 163.21483 192.4116 164.06688 202.74015 164.69185 214.54416 165.18079 228.1188 165.5141 245.23464 165.69802 269.4329 165.74076"/>
</g>
<g clip-path="url(#clip_19)">
<path transform="matrix(1,0,0,-1,-10,169)" stroke-width="1.5" stroke-linecap="square" stroke-linejoin="round" fill="none" stroke="#2980b9" stroke-opacity=".1" d="M43.090658 44.244707 43.680856 50.57324 44.86126 60.812959 45.74656 66.72068 46.33676 69.92648 47.517168 75.25779 48.697568 79.259059 50.173074 83.04529 51.648576 86.2438 53.41918 89.651699 55.779985 93.651279 58.73099 98.1431 61.9771 102.64511 65.51831 107.167858 69.05952 111.349758 73.190929 115.846 77.322338 119.987979 81.74885 124.09811 85.88026 127.64086 90.30677 131.12181 95.02838 134.54184 99.45489 137.47405 104.1765 140.32289 108.89811 142.92852 113.61972 145.305 119.22664 147.86107 124.24335 149.91754 129.85027 151.9873 135.75228 153.93529 141.94939 155.73516 148.4416 157.3872 155.22893 158.88234 162.31134 160.21923 169.98397 161.4414 178.24678 162.51567 186.8047 163.40726 196.24793 164.16536 206.87155 164.79267 218.38048 165.24604 231.95511 165.55707 248.77585 165.71268 269.4329 165.74076"/>
</g>
<g clip-path="url(#clip_20)">
<path transform="matrix(1,0,0,-1,-10,169)" stroke-width="1.5" stroke-linecap="square" stroke-linejoin="round" fill="none" stroke="#e74c3c" stroke-opacity=".1" d="M43.090658 60.79749 43.680856 87.02495 44.271059 100.63124 45.15636 115.825489 45.74656 122.419628 46.631864 128.8706 47.222066 132.01308 48.10737 134.79935 48.99267 136.97982 49.87797 138.69269 51.648576 141.50235 53.12408 143.36524 54.599584 144.92697 56.665288 146.75592 59.026094 148.53397 62.2722 150.62374 65.51831 152.41085 69.05952 154.10456 72.60072 155.58348 76.437038 156.95767 80.86355 158.31589 85.58516 159.53478 90.89697 160.6667 96.79898 161.69255 103.2912 162.58953 110.66872 163.38152 118.93153 164.0407 129.26006 164.62454 141.6543 165.08083 156.99953 165.41147 177.95168 165.6269 213.06867 165.72954 269.4329 165.74076"/>
</g>
<g clip-path="url(#clip_21)">
<path transform="matrix(1,0,0,-1,-10,169)" stroke-width="1.5" stroke-linecap="square" stroke-linejoin="round" fill="none" stroke="#f1c40f" stroke-opacity=".1" d="M43.090658 45.539175 43.975957 53.87599 44.56616 58.472414 45.45146 63.65073 46.631864 68.68044 47.517168 71.75814 48.697568 75.00849 50.468175 79.12345 52.82898 84.006717 55.189786 88.373989 58.140794 93.35331 61.091798 97.93491 64.633 103.02548 68.17422 107.70536 71.71542 112.06575 75.551738 116.44152 79.38804 120.48926 83.519458 124.50826 87.35576 127.93431 91.48717 131.32952 95.61858 134.45258 100.04509 137.50446 104.4716 140.27907 109.193218 142.96163 114.20992 145.54634 119.22664 147.87598 124.53845 150.10449 129.85027 152.1036 135.45717 153.98429 141.35919 155.73029 147.5563 157.32997 154.34363 158.85242 161.13094 160.15053 168.80356 161.38649 177.06638 162.47646 185.6243 163.37906 195.06752 164.14402 205.69115 164.77219 217.49518 165.24036 231.3649 165.55345 249.36605 165.71569 269.4329 165.74076"/>
</g>
<g clip-path="url(#clip_22)">
<path transform="matrix(1,0,0,-1,-10,169)" stroke-width="1.5" stroke-linecap="square" stroke-linejoin="round" fill="none" stroke="#2980b9" stroke-opacity=".1" d="M43.090658 43.583124 43.975957 51.447874 45.45146 60.142419 46.33676 64.374 47.222066 67.66361 48.99267 73.176349 50.76327 77.63125 52.53388 81.5283 54.599584 85.58535 56.96039 89.77573 59.911397 94.56526 62.862405 98.96607 66.69871 104.2695 70.23992 108.791019 73.78113 112.97622 77.91254 117.48904 81.74885 121.356807 85.88026 125.21304 90.011669 128.77402 94.143077 132.0556 98.56959 135.2859 102.9961 138.22809 107.42261 140.90866 112.43932 143.67584 117.75114 146.32724 123.06294 148.70308 128.66986 150.94927 134.27678 152.95044 139.88368 154.7291 146.3759 156.53702 153.16323 158.16513 159.95053 159.57396 167.62316 160.92238 175.59087 162.07427 183.5586 163.00833 192.4116 163.8288 202.14994 164.50864 213.36377 165.05828 225.758 165.43288 241.10323 165.6601 263.23579 165.74 269.4329 165.74076"/>
</g>
<g clip-path="url(#clip_23)">
<path transform="matrix(1,0,0,-1,-10,169)" stroke-width="1.5" stroke-linecap="square" stroke-linejoin="round" fill="none" stroke="#e74c3c" stroke-opacity=".1" d="M43.090658 57.8018 43.680856 74.24796 44.271059 85.97117 44.86126 92.92487 46.33676 104.670497 47.517168 112.62976 48.697568 118.05416 49.58287 121.17315 50.76327 124.38605 51.943677 127.00229 53.41918 129.80345 55.189786 132.7671 56.96039 135.3048 59.321195 138.26811 61.682 140.8568 64.337909 143.42028 66.99381 145.67177 69.94482 147.8736 72.89583 149.80284 76.437038 151.83184 79.97824 153.58182 83.519458 155.10095 87.35576 156.53604 91.78227 157.94712 96.20878 159.1426 101.225498 160.28279 106.832408 161.32936 113.32462 162.3078 120.40704 163.14234 128.66986 163.87493 137.81798 164.4608 149.03182 164.9532 162.60645 165.32213 180.90268 165.57906 208.34705 165.71384 269.4329 165.74076"/>
</g>
<g clip-path="url(#clip_24)">
<path transform="matrix(1,0,0,-1,-10,169)" stroke-width="1.5" stroke-linecap="square" stroke-linejoin="round" fill="none" stroke="#f1c40f" stroke-opacity=".1" d="M43.090658 44.858934 43.975957 52.25885 44.56616 55.88301 45.45146 59.54404 46.926965 64.792819 48.697568 70.20723 50.173074 73.972118 51.943677 77.84693 54.00938 81.89342 56.665288 86.60738 59.911397 91.868007 63.452604 97.147449 66.99381 102.005359 70.830127 106.88232 74.66643 111.39431 78.79784 115.87464 82.63415 119.73006 86.76556 123.582569 90.89697 127.13864 95.32348 130.65908 99.74999 133.89902 104.4716 137.09514 109.193218 140.02191 114.20992 142.86589 119.22664 145.44576 124.53845 147.92441 129.85027 150.14694 135.45717 152.25658 141.06409 154.12783 147.2612 155.9628 153.16323 157.49466 159.95053 159.02419 166.73786 160.3386 173.82027 161.4912 181.788 162.55806 190.641 163.49726 199.78913 164.24498 209.82256 164.84432 221.03638 165.28636 234.31592 165.57778 252.02196 165.72345 269.4329 165.74076"/>
</g>
<g clip-path="url(#clip_25)">
<path transform="matrix(1,0,0,-1,-10,169)" stroke-width="1.5" stroke-linecap="square" stroke-linejoin="round" fill="none" stroke="#2980b9" stroke-opacity=".1" d="M43.090658 43.385953 43.975957 48.513868 45.15636 53.9726 46.926965 60.284414 48.40247 64.90281 50.468175 70.51602 52.53388 75.43662 54.894685 80.41012 57.55059 85.39505 60.5016 90.47669 63.747705 95.63156 66.99381 100.39567 69.94482 104.39443 73.48603 108.854068 77.61744 113.65379 81.45375 117.76555 85.290058 121.57254 89.42146 125.34945 93.84798 129.05939 98.27449 132.46015 102.9961 135.77887 107.42261 138.61913 112.73442 141.73717 117.45603 144.26058 122.767848 146.83072 128.37476 149.2637 133.68657 151.33634 139.5886 153.38883 146.0808 155.38866 152.57302 157.12905 159.36034 158.70581 166.44275 160.11463 173.52516 161.30527 181.19779 162.37284 189.7557 163.32756 198.90383 164.1207 208.93726 164.75563 220.15108 165.23178 233.13552 165.54982 249.36605 165.71195 269.4329 165.74076"/>
</g>
<g clip-path="url(#clip_26)">
<path transform="matrix(1,0,0,-1,-10,169)" stroke-width="1.5" stroke-linecap="square" stroke-linejoin="round" fill="none" stroke="#e74c3c" stroke-opacity=".1" d="M43.090658 54.67962 44.271059 94.988887 44.86126 111.587108 45.15636 118.721118 45.74656 123.914089 46.33676 127.77079 47.222066 131.12705 48.10737 133.42894 49.58287 136.45984 51.058374 139.07132 52.82898 141.64963 54.599584 143.7649 56.96039 146.11835 59.321195 148.13791 61.9771 150.0742 64.92811 151.93607 68.17422 153.69618 71.71542 155.36215 75.551738 156.88043 79.38804 158.15908 83.81455 159.39449 88.83126 160.55806 93.84798 161.4974 99.74999 162.38138 106.2422 163.15033 114.20992 163.86798 123.35805 164.46004 134.27678 164.93279 148.1465 165.30335 166.44275 165.56075 194.77242 165.70624 258.21907 165.74076H269.4329"/>
</g>
<g clip-path="url(#clip_27)">
<path transform="matrix(1,0,0,-1,-10,169)" stroke-width="1.5" stroke-linecap="square" stroke-linejoin="round" fill="none" stroke="#f1c40f" stroke-opacity=".1" d="M43.090658 45.400144 43.975957 55.93617 44.86126 64.12485 45.74656 69.21664 46.631864 72.55265 47.812269 76.10104 49.58287 80.32772 51.648576 84.6079 54.00938 89.02493 57.25549 94.56521 60.5016 99.620609 63.452604 103.84049 67.28891 108.89832 70.53502 112.84407 74.076229 116.819087 77.61744 120.494388 81.45375 124.18482 85.290058 127.58507 89.42146 130.96112 93.55288 134.06656 97.979389 137.1163 102.701 140.08306 107.42261 142.78548 112.14422 145.24654 117.160938 147.61499 122.17764 149.74723 127.78456 151.88768 133.39147 153.788 139.5886 155.63443 145.7857 157.25537 152.27793 158.73455 159.36034 160.11606 166.44275 161.27696 174.70557 162.39818 182.96839 163.29695 192.4116 164.09647 202.44504 164.72275 213.65886 165.19744 226.9384 165.52552 243.46404 165.70111 269.4329 165.74076"/>
</g>
<g clip-path="url(#clip_28)">
<path transform="matrix(1,0,0,-1,-10,169)" stroke-width="1.5" stroke-linecap="square" stroke-linejoin="round" fill="none" stroke="#2980b9" stroke-opacity=".1" d="M43.090658 43.05852 43.975957 49.49015 45.45146 58.13504 46.33676 62.12527 47.222066 65.44998 48.697568 69.88477 50.468175 74.532649 52.82898 80.024799 55.189786 85.035579 57.84569 90.14674 60.796697 95.2906 64.04281 100.40804 67.28891 105.12137 70.53502 109.44866 74.37133 114.14487 77.91254 118.13946 81.74885 122.11151 85.290058 125.50637 88.83126 128.62825 92.96268 131.978 97.094089 135.05237 101.52059 138.05646 105.947109 140.80023 110.66872 143.46985 115.39033 145.89165 120.40704 148.20868 126.013957 150.53325 131.62087 152.60068 137.22779 154.43352 143.12979 156.13747 149.62201 157.7722 156.11423 159.18372 162.90154 160.44512 170.57416 161.64545 178.54189 162.66526 187.3949 163.56932 196.83812 164.3078 206.87155 164.87302 218.67557 165.31076 232.5453 165.59358 250.54645 165.72446 269.4329 165.74076"/>
</g>
<g clip-path="url(#clip_29)">
<path transform="matrix(1,0,0,-1,-10,169)" stroke-width="1.5" stroke-linecap="square" stroke-linejoin="round" fill="none" stroke="#e74c3c" stroke-opacity=".1" d="M43.090658 52.359048 44.271059 94.77939 44.56616 102.97212 45.15636 111.16726 45.74656 116.446109 46.631864 121.49033 47.517168 125.57865 48.697568 129.9116 49.87797 133.2349 51.058374 136.06536 52.53388 139.04135 54.00938 141.48777 55.779985 143.95816 57.84569 146.38814 59.911397 148.51218 61.9771 150.32135 64.04281 151.86325 66.40361 153.36241 69.05952 154.80803 72.305629 156.29439 76.14194 157.72766 79.97824 158.91988 84.10965 159.98482 89.126369 161.02817 95.02838 162.02083 101.225498 162.83472 108.89811 163.60028 117.45603 164.21936 128.37476 164.7659 141.6543 165.18766 158.77013 165.49008 182.6733 165.67028 225.758 165.73828 269.4329 165.74076"/>
</g>
<g clip-path="url(#clip_30)">
<path transform="matrix(1,0,0,-1,-10,169)" stroke-width="1.5" stroke-linecap="square" stroke-linejoin="round" fill="none" stroke="#f1c40f" stroke-opacity=".1" d="M43.090658 44.66366 44.271059 57.86045 44.86126 62.99643 45.74656 67.58627 46.926965 72.202777 48.10737 76.06988 49.87797 81.03039 51.943677 86.05582 54.30448 91.101947 56.665288 95.583118 59.321195 100.14479 62.2722 104.77006 65.223209 108.99091 68.17422 112.865848 71.71542 117.11906 74.96153 120.655757 78.50274 124.18947 82.63415 127.93548 86.76556 131.34413 90.89697 134.45006 95.02838 137.2778 99.45489 140.0459 103.8814 142.56472 108.60301 145.00469 113.914829 147.49822 119.22664 149.73542 124.53845 151.74839 130.44046 153.74103 136.34249 155.49997 142.8347 157.18256 149.62201 158.70056 156.70442 160.06052 163.78685 161.20726 171.75457 162.27825 180.31249 163.21076 189.4606 163.98979 200.08423 164.66373 211.59316 165.16022 224.8727 165.50315 240.80812 165.68775 267.6623 165.74074 269.4329 165.74076"/>
</g>
<g clip-path="url(#clip_31)">
<path transform="matrix(1,0,0,-1,-10,169)" stroke-width="1.5" stroke-linecap="square" stroke-linejoin="round" fill="none" stroke="#2980b9" stroke-opacity=".1" d="M43.090658 43.12438 44.271059 50.675966 46.04166 59.841287 47.222066 64.56136 48.40247 68.54746 50.173074 73.830738 51.943677 78.508159 54.00938 83.375499 56.370187 88.400989 59.026094 93.46321 61.682 98.074558 64.633 102.73336 68.17422 107.8317 71.42033 112.08694 74.96153 116.33929 78.79784 120.53636 82.33905 124.09905 85.88026 127.370258 90.011669 130.86197 93.84798 133.8233 97.979389 136.74779 102.4059 139.60314 106.832408 142.19301 111.554019 144.71402 116.27563 146.99776 120.99724 149.06372 126.30905 151.16092 132.21108 153.2304 138.11309 155.04932 144.6053 156.80892 151.09752 158.33715 158.17993 159.76494 165.85256 161.0673 173.52516 162.14781 182.08309 163.12496 191.23122 163.93982 201.26464 164.60198 212.77356 165.12847 225.758 165.48319 241.69344 165.68228 266.77699 165.7407 269.4329 165.74076"/>
</g>
<g clip-path="url(#clip_32)">
<path transform="matrix(1,0,0,-1,-10,169)" stroke-width="1.5" stroke-linecap="square" stroke-linejoin="round" fill="none" stroke="#e74c3c" stroke-opacity=".1" d="M43.090658 54.274938 44.271059 91.39372 44.56616 99.71115 45.15636 105.80517 46.04166 111.72134 46.926965 116.317478 48.10737 121.16599 49.28777 125.00967 50.468175 128.13555 51.943677 131.40271 53.71428 134.73032 55.779985 138.09685 57.84569 141.01377 59.616296 143.11029 61.9771 145.50559 64.337909 147.58568 66.69871 149.39665 69.354618 151.18415 72.01052 152.72383 75.25663 154.36074 78.79784 155.89553 82.63415 157.30416 86.47046 158.49289 91.48717 159.77896 96.20878 160.7716 102.110797 161.78342 108.60301 162.66222 116.57073 163.49065 124.83355 164.12824 134.57187 164.66429 146.96611 165.1123 162.90154 165.4431 184.14879 165.64612 219.56089 165.7341 269.4329 165.74076"/>
</g>
<g clip-path="url(#clip_33)">
<path transform="matrix(1,0,0,-1,-10,169)" stroke-width="1.5" stroke-linecap="square" stroke-linejoin="round" fill="none" stroke="#f1c40f" stroke-opacity=".1" d="M43.090658 44.332006 43.975957 52.70338 44.86126 59.46421 45.74656 63.54462 46.926965 67.82029 48.40247 72.37571 50.173074 77.055538 52.238779 81.85158 54.30448 86.199939 57.25549 91.80055 60.206499 96.84806 63.1575 101.42532 66.69871 106.4565 69.64972 110.29769 73.190929 114.57478 76.73213 118.50478 80.273349 122.1075 84.404758 125.962558 88.241069 129.23233 92.07737 132.25664 96.79898 135.66223 101.225498 138.55976 106.2422 141.55123 110.96381 144.11679 115.98053 146.57202 120.99724 148.79326 126.013957 150.79962 131.62087 152.80826 137.52289 154.68296 143.72 156.42496 150.50731 158.07195 157.29463 159.49085 164.67215 160.80017 172.63986 161.97461 180.90268 162.96355 190.05081 163.82793 199.78913 164.51679 210.41275 165.04537 222.51189 165.4252 237.26692 165.65377 259.10438 165.73876 269.4329 165.74076"/>
</g>
<g clip-path="url(#clip_34)">
<path transform="matrix(1,0,0,-1,-10,169)" stroke-width="1.5" stroke-linecap="square" stroke-linejoin="round" fill="none" stroke="#2980b9" stroke-opacity=".1" d="M43.090658 42.928407 44.86126 52.959638 46.04166 58.391809 47.222066 62.810464 48.99267 68.51266 51.058374 74.27698 53.41918 80.080219 55.779985 85.325489 58.43589 90.66023 61.091798 95.468509 64.337909 100.85428 67.28891 105.33449 70.23992 109.450519 73.48603 113.5988 77.02724 117.72924 80.56844 121.51663 84.404758 125.270709 88.53616 128.97332 92.07737 131.87465 95.91368 134.7669 100.340198 137.82016 104.7667 140.59012 109.193218 143.10344 114.20992 145.68733 119.22664 148.02178 124.24335 150.11966 129.85027 152.21212 135.45717 154.08005 141.35919 155.81658 147.5563 157.41384 154.34363 158.92049 161.42604 160.25862 168.80356 161.43494 177.36148 162.55594 186.2145 163.48462 195.36263 164.2204 205.98625 164.84098 217.79027 165.29286 231.66 165.58377 249.36605 165.7217 269.4329 165.74076"/>
</g>
<g clip-path="url(#clip_35)">
<path transform="matrix(1,0,0,-1,-10,169)" stroke-width="1.5" stroke-linecap="square" stroke-linejoin="round" fill="none" stroke="#e74c3c" stroke-opacity=".1" d="M43.090658 52.74261 44.271059 82.61894 44.86126 92.65388 45.45146 99.40024 46.04166 103.92956 46.926965 108.74657 48.10737 113.8249 49.28777 117.99521 50.468175 121.3239 52.238779 125.64864 53.71428 128.71417 55.484888 131.83979 57.55059 134.96735 59.321195 137.2747 61.682 140.00222 64.337909 142.6795 66.99381 145.0317 69.94482 147.33173 72.89583 149.34194 76.14194 151.2753 79.97824 153.27445 83.81455 155.01142 87.94596 156.60808 92.07737 157.97016 96.79898 159.28366 101.52059 160.37996 107.12751 161.44849 113.32462 162.38587 120.11194 163.18733 128.37476 163.92223 137.81798 164.51958 149.03182 164.99898 162.90154 165.35733 181.788 165.6021 210.41275 165.72147 269.4329 165.74076"/>
</g>
<g clip-path="url(#clip_36)">
<path transform="matrix(1,0,0,-1,-10,169)" stroke-width="1.5" stroke-linecap="square" stroke-linejoin="round" fill="none" stroke="#f1c40f" stroke-opacity=".1" d="M43.090658 44.11155 43.975957 51.1375 45.15636 58.22848 46.04166 62.167528 47.222066 66.07867 48.697568 70.20217 50.76327 75.255878 53.12408 80.28359 55.779985 85.39334 58.73099 90.49224 61.386899 94.683879 64.633 99.39059 68.469318 104.51793 72.305629 109.26163 76.14194 113.65955 79.97824 117.723499 84.404758 122.06365 88.83126 126.033008 92.96268 129.46216 97.38918 132.8501 102.110797 136.16394 107.12751 139.3863 112.14422 142.30422 117.160938 144.95256 122.767848 147.63512 128.07965 149.90953 133.68657 152.05748 139.5886 154.07726 145.4906 155.8472 151.68772 157.47318 158.47504 159.016 165.55745 160.38944 172.93497 161.58676 180.90268 162.65076 188.8704 163.49791 197.72342 164.2282 208.05196 164.848 218.97068 165.28057 231.95511 165.5738 248.48075 165.7178 269.4329 165.74076"/>
</g>
<g clip-path="url(#clip_37)">
<path transform="matrix(1,0,0,-1,-10,169)" stroke-width="1.5" stroke-linecap="square" stroke-linejoin="round" fill="none" stroke="#2980b9" stroke-opacity=".1" d="M43.090658 42.97646 44.271059 49.415605 45.45146 54.581186 46.926965 60.083829 48.10737 63.730604 50.173074 69.354938 52.238779 74.35762 54.599584 79.44231 57.25549 84.65999 60.206499 89.925029 63.452604 95.270069 66.40361 99.763797 69.94482 104.70389 73.48603 109.26335 77.322338 113.804668 81.158649 117.99416 84.99496 121.8718 88.83126 125.45947 93.257778 129.2892 97.68429 132.79084 102.110797 136.00099 106.2422 138.73819 110.66872 141.43175 115.39033 144.05234 120.11194 146.42615 125.42375 148.8448 130.73557 151.00679 136.04738 152.94338 142.24449 154.94435 148.4416 156.69355 154.93383 158.28475 161.42604 159.65493 168.80356 160.97325 176.18108 162.06592 184.4439 163.05886 193.59201 163.91468 203.03524 164.57247 213.95397 165.1004 226.0531 165.4601 240.80812 165.67115 263.826 165.74036 269.4329 165.74076"/>
</g>
<g clip-path="url(#clip_38)">
<path transform="matrix(1,0,0,-1,-10,169)" stroke-width="1.5" stroke-linecap="square" stroke-linejoin="round" fill="none" stroke="#e74c3c" stroke-opacity=".1" d="M43.090658 54.78297 43.680856 72.3153 44.271059 83.43507 45.15636 95.591197 45.74656 100.93456 46.631864 106.58717 48.10737 113.39062 49.28777 117.61519 50.468175 121.1588 51.943677 124.91075 53.71428 128.67292 55.189786 131.33446 57.25549 134.61833 59.321195 137.46996 61.682 140.29537 63.747705 142.45005 66.10851 144.61376 68.76442 146.72846 71.42033 148.61885 74.37133 150.46424 77.91254 152.41773 81.45375 154.12776 85.290058 155.70401 89.71657 157.26802 94.43818 158.67198 98.864688 159.78284 104.1765 160.88727 110.078517 161.8846 116.57073 162.75351 123.653148 163.48598 132.21108 164.1475 142.5396 164.7116 154.93383 165.14856 170.57416 165.46465 191.82141 165.65743 228.709 165.73697 269.4329 165.74076"/>
</g>
<g clip-path="url(#clip_39)">
<path transform="matrix(1,0,0,-1,-10,169)" stroke-width="1.5" stroke-linecap="square" stroke-linejoin="round" fill="none" stroke="#f1c40f" stroke-opacity=".1" d="M43.090658 44.335279 43.680856 49.026216 44.56616 54.267396 45.45146 58.28156 46.631864 62.709199 48.40247 68.1942 50.173074 72.9132 52.238779 77.76662 54.599584 82.7646 57.25549 87.792499 60.206499 92.869449 62.862405 97.04188 66.40361 102.190387 69.94482 106.8692 74.076229 111.895648 77.61744 115.8248 81.45375 119.752689 85.58516 123.667118 89.71657 127.285617 94.143077 130.85645 98.27449 133.92589 102.9961 137.14003 107.42261 139.89083 111.84912 142.40818 117.160938 145.16168 122.47275 147.64029 128.07965 149.98735 133.68657 152.08806 139.5886 154.0518 145.7857 155.88385 151.98282 157.47933 158.77013 159.00489 165.85256 160.36083 173.23007 161.54955 181.19779 162.60353 189.7557 163.50923 199.19893 164.27608 209.52745 164.8772 221.03638 165.31856 234.31592 165.59642 252.02196 165.72669 269.4329 165.74076"/>
</g>
<g clip-path="url(#clip_40)">
<path transform="matrix(1,0,0,-1,-10,169)" stroke-width="1.5" stroke-linecap="square" stroke-linejoin="round" fill="none" stroke="#2980b9" stroke-opacity=".1" d="M43.090658 42.7963 44.56616 50.365869 46.04166 56.87246 47.222066 61.094347 48.99267 66.467998 51.353475 72.7382 53.41918 77.538219 55.779985 82.52052 58.43589 87.602039 61.386899 92.77964 64.337909 97.47631 67.584018 102.20755 71.12522 106.961498 74.66643 111.3399 78.20764 115.378658 82.043949 119.422779 85.88026 123.16568 90.011669 126.86935 94.43818 130.52613 98.56959 133.67844 102.9961 136.79085 107.42261 139.63704 112.14422 142.39981 117.160938 145.05443 122.17764 147.45157 127.489459 149.72963 133.09638 151.88646 138.70328 153.8086 144.6053 155.59708 151.09752 157.31938 157.88483 158.87145 164.67215 160.20381 171.75457 161.37114 179.72228 162.46013 188.2802 163.40096 197.13323 164.14839 207.16664 164.76779 218.08538 165.22432 230.7747 165.53958 246.71015 165.70468 269.4329 165.74076"/>
</g>
<g clip-path="url(#clip_41)">
<path transform="matrix(1,0,0,-1,-10,169)" stroke-width="1.5" stroke-linecap="square" stroke-linejoin="round" fill="none" stroke="#e74c3c" stroke-opacity=".1" d="M43.090658 52.340517 43.975957 66.01517 44.56616 72.58102 45.45146 79.56386 46.631864 87.1402 47.812269 92.95106 49.28777 98.972 50.76327 104.20417 52.82898 110.45753 54.599584 115.06292 56.96039 120.45199 59.026094 124.574718 61.091798 128.29955 63.452604 132.05626 65.81341 135.38762 68.17422 138.35591 70.53502 140.9939 73.190929 143.61267 76.14194 146.19046 79.09294 148.42984 82.043949 150.3988 84.99496 152.12114 88.241069 153.78386 91.78227 155.36328 95.91368 156.93627 100.04509 158.2649 104.4716 159.45485 109.48831 160.58176 114.800128 161.55841 120.99724 162.47312 128.07965 163.28775 136.34249 163.9945 145.4906 164.5572 156.40933 165.01003 170.86927 165.37465 189.7557 165.61019 218.97068 165.72455 269.4329 165.74076"/>
</g>
<g clip-path="url(#clip_42)">
<path transform="matrix(1,0,0,-1,-10,169)" stroke-width="1.5" stroke-linecap="square" stroke-linejoin="round" fill="none" stroke="#f1c40f" stroke-opacity=".1" d="M43.090658 42.988489 43.680856 46.19763 44.86126 51.26003 46.631864 57.157907 48.40247 62.066976 50.76327 67.87465 53.71428 74.46937 56.370187 79.81287 59.616296 85.7958 63.1575 91.810298 66.40361 96.90369 69.94482 102.039737 73.48603 106.793437 77.322338 111.58581 81.158649 115.99202 84.99496 120.05121 88.83126 123.80584 92.96268 127.50751 97.094089 130.92002 101.225498 134.05454 105.3569 136.92685 110.078517 139.92708 115.09523 142.82695 119.81684 145.3047 124.83355 147.69004 130.14537 149.96367 135.75228 152.11304 141.06409 153.92307 147.2612 155.77983 153.45832 157.40496 160.24564 158.94368 167.32805 160.30896 174.70557 161.49854 182.96839 162.59542 191.5263 163.49779 200.67444 164.24262 210.70786 164.83841 221.92168 165.27902 235.20122 165.57645 252.61215 165.72289 269.4329 165.74076"/>
</g>
<g clip-path="url(#clip_43)">
<path transform="matrix(1,0,0,-1,-10,169)" stroke-width="1.5" stroke-linecap="square" stroke-linejoin="round" fill="none" stroke="#2980b9" stroke-opacity=".1" d="M43.090658 43.217714 43.680856 46.69835 44.86126 51.438165 46.33676 56.281999 48.10737 61.329488 50.173074 66.616039 52.53388 72.08223 55.484888 78.34004 58.140794 83.48377 61.386899 89.31974 64.92811 95.14806 68.469318 100.51787 72.01052 105.479259 75.551738 110.03673 79.38804 114.56792 83.22435 118.75732 87.35576 122.92214 91.19207 126.47213 95.02838 129.75667 99.15979 133.00917 103.2912 135.9934 107.71771 138.9251 112.43932 141.76566 117.160938 144.3436 122.17764 146.82395 127.19436 149.0647 132.50617 151.18752 138.40819 153.29082 144.3102 155.14583 150.80242 156.9198 156.99953 158.39585 164.08194 159.84929 171.45946 161.11952 178.83698 162.17377 186.8047 163.09981 195.36263 163.88524 205.39604 164.57343 216.31478 165.09549 228.709 165.46024 243.75914 165.67414 265.5966 165.74057 269.4329 165.74076"/>
</g>
<g clip-path="url(#clip_44)">
<path transform="matrix(1,0,0,-1,-10,169)" stroke-width="1.5" stroke-linecap="square" stroke-linejoin="round" fill="none" stroke="#e74c3c" stroke-opacity=".1" d="M43.090658 61.546087 43.385759 70.85864 43.975957 81.30095 45.15636 93.95432 46.04166 100.203517 47.222066 106.481578 48.40247 111.51108 49.58287 115.652858 51.058374 120.08767 52.82898 124.550388 54.30448 127.75247 56.075086 131.0694 58.140794 134.46033 60.206499 137.4042 62.2722 139.96469 64.337909 142.25551 66.69871 144.56056 69.354618 146.85233 72.305629 149.04941 75.25663 150.95905 78.20764 152.62015 81.45375 154.21212 84.99496 155.70827 88.83126 157.09897 92.96268 158.37404 97.38918 159.52936 102.4059 160.61597 108.307918 161.64864 114.800128 162.55345 122.17764 163.34189 130.73557 164.03473 141.06409 164.63086 152.57302 165.06853 167.62316 165.4084 187.9851 165.62932 220.15108 165.73026 269.4329 165.74076"/>
</g>
<g clip-path="url(#clip_45)">
<path transform="matrix(1,0,0,-1,-10,169)" stroke-width="1.5" stroke-linecap="square" stroke-linejoin="round" fill="none" stroke="#f1c40f" stroke-opacity=".1" d="M43.090658 43.917165 43.680856 47.818376 44.86126 53.233957 46.04166 57.748636 47.812269 63.417959 49.87797 69.169017 52.238779 75.02473 54.599584 80.23684 57.55059 86.1325 60.5016 91.48098 63.452604 96.399959 66.69871 101.38063 70.23992 106.35864 73.78113 110.937877 77.322338 115.143398 81.158649 119.31078 85.290058 123.434459 89.126369 126.940868 92.96268 130.15802 97.094089 133.35587 101.52059 136.48262 106.2422 139.53119 110.96381 142.2889 116.27563 145.09856 121.58744 147.62584 126.899257 149.8938 132.50617 152.03333 138.11309 153.93297 143.72 155.61809 149.91712 157.25206 156.70442 158.79778 163.49175 160.11788 170.57416 161.28774 178.54189 162.37834 187.0998 163.31829 196.54302 164.11483 206.87155 164.75028 218.08538 165.21681 231.66 165.54357 248.77585 165.71166 269.4329 165.74076"/>
</g>
<g clip-path="url(#clip_46)">
<path transform="matrix(1,0,0,-1,-10,169)" stroke-width="1.5" stroke-linecap="square" stroke-linejoin="round" fill="none" stroke="#2980b9" stroke-opacity=".1" d="M43.090658 44.282045 43.975957 50.531068 45.15636 56.00013 46.33676 60.47079 48.10737 66.25073 49.87797 71.297557 51.648576 75.742328 54.00938 81.054599 56.370187 85.81565 59.026094 90.71235 61.682 95.20169 64.92811 100.255847 68.469318 105.29298 71.71542 109.55056 75.25663 113.82487 78.79784 117.77032 82.63415 121.706409 86.76556 125.610309 90.89697 129.19254 94.73328 132.25899 99.15979 135.50273 103.8814 138.64943 108.307918 141.31339 113.029529 143.90372 118.046237 146.40235 123.06294 148.66056 128.37476 150.8082 134.27678 152.9251 140.17879 154.80371 146.0808 156.45333 152.57302 158.04129 159.36034 159.4708 166.44275 160.7397 173.82027 161.85095 182.08309 162.8629 190.641 163.69425 200.67444 164.43202 211.29805 164.98505 223.98738 165.40082 238.44733 165.64218 258.80928 165.73726 269.4329 165.74076"/>
</g>
<g clip-path="url(#clip_47)">
<path transform="matrix(1,0,0,-1,-10,169)" stroke-width="1.5" stroke-linecap="square" stroke-linejoin="round" fill="none" stroke="#e74c3c" d="M43.090658 56.010244 43.975957 83.26714 44.56616 95.801548 45.15636 104.51961 45.74656 110.43088 46.631864 116.75911 47.517168 120.95811 48.697568 125.0045 49.87797 128.17945 51.353475 131.41706 52.82898 134.137 54.599584 136.91007 56.665288 139.671 58.73099 142.06555 61.091798 144.4448 63.747705 146.76448 66.40361 148.77825 69.354618 150.72821 72.60072 152.57932 76.14194 154.3169 79.97824 155.92504 84.10965 157.3929 88.53616 158.71292 93.257778 159.88997 98.56959 160.97992 104.4716 161.95388 110.96381 162.8018 118.63644 163.57146 127.489459 164.22338 137.81798 164.75359 150.50731 165.17467 166.73786 165.47873 189.4606 165.66576 229.5943 165.73792 269.4329 165.74076"/>
</g>
<g clip-path="url(#clip_48)">
<path transform="matrix(1,0,0,-1,-10,169)" stroke-width="1.5" stroke-linecap="butt" stroke-dasharray="5.55,2.4" stroke-linejoin="round" fill="none" stroke="#f1c40f" d="M43.090658 44.58297 43.975957 52.62415 44.86126 58.840677 45.74656 63.380605 46.926965 67.982509 48.10737 71.6001 49.87797 76.1424 51.943677 80.7894 54.30448 85.55026 56.96039 90.39094 59.911397 95.30796 63.1575 100.255588 66.69871 105.21332 70.23992 109.76767 73.78113 113.97592 77.61744 118.17643 81.45375 122.0389 85.290058 125.605937 89.42146 129.14032 93.55288 132.3862 97.979389 135.57433 102.4059 138.48676 107.12751 141.32199 112.14422 144.05233 117.160938 146.52286 122.47275 148.88159 127.78456 150.99918 133.39147 152.99579 139.29349 154.85768 145.4906 156.57329 151.98282 158.13762 158.77013 159.5488 166.14765 160.8485 173.82027 161.97272 182.08309 162.95848 191.23122 163.81542 200.96953 164.50128 211.88826 165.04143 224.28249 165.42443 239.33263 165.65612 260.57987 165.739 269.4329 165.74076"/>
</g>
<g clip-path="url(#clip_49)">
<path transform="matrix(1,0,0,-1,-10,169)" stroke-width="1.5" stroke-linecap="butt" stroke-dasharray="1.5,2.475" stroke-linejoin="round" fill="none" stroke="#2980b9" d="M43.090658 43.44383 43.975957 49.792108 45.15636 56.511098 46.33676 61.940526 47.517168 66.35415 48.99267 70.91317 50.76327 75.59228 52.82898 80.347599 55.189786 85.19708 57.84569 90.10228 60.796697 95.07361 64.04281 100.07706 67.28891 104.68585 70.830127 109.31029 74.37133 113.56548 77.91254 117.4938 81.74885 121.428058 85.58516 125.05942 89.71657 128.65366 93.84798 131.95604 98.27449 135.1979 102.701 138.15865 107.12751 140.86022 111.84912 143.48863 116.86583 146.01941 121.882549 148.30382 127.19436 150.48003 132.80127 152.53342 138.70328 154.45145 144.9004 156.2226 151.39261 157.83705 158.17993 159.29302 165.26235 160.58914 172.93497 161.7632 181.19779 162.79418 190.05081 163.66782 199.49404 164.37543 210.11766 164.94498 222.21678 165.36255 236.38162 165.62154 255.56316 165.73303 269.4329 165.74076"/>
</g>
<path transform="matrix(1,0,0,-1,-10,169)" stroke-width=".8" stroke-linecap="square" stroke-miterlimit="10" stroke-linejoin="miter" fill="none" stroke="#000000" d="M43.385759 40.618318V165.74076"/>
<path transform="matrix(1,0,0,-1,-10,169)" stroke-width=".8" stroke-linecap="square" stroke-miterlimit="10" stroke-linejoin="miter" fill="none" stroke="#000000" d="M43.385759 40.618318H269.728"/>
<g>
<path transform="matrix(1,0,0,-1,-10,169)" d="M195.24164 45.618318H262.728C264.06135 45.618318 264.728 46.284986 264.728 47.618318V91.55007C264.728 92.8834 264.06135 93.55007 262.728 93.55007H195.24164C193.90831 93.55007 193.24164 92.8834 193.24164 91.55007V47.618318C193.24164 46.284986 193.90831 45.618318 195.24164 45.618318Z" fill="#ffffff" fill-opacity=".8"/>
<path transform="matrix(1,0,0,-1,-10,169)" stroke-width="1" stroke-linecap="butt" stroke-miterlimit="10" stroke-linejoin="miter" fill="none" stroke="#cccccc" stroke-opacity=".8" d="M195.24164 45.618318H262.728C264.06135 45.618318 264.728 46.284986 264.728 47.618318V91.55007C264.728 92.8834 264.06135 93.55007 262.728 93.55007H195.24164C193.90831 93.55007 193.24164 92.8834 193.24164 91.55007V47.618318C193.24164 46.284986 193.90831 45.618318 195.24164 45.618318Z"/>
</g>
<path transform="matrix(1,0,0,-1,-10,169)" stroke-width="1.5" stroke-linecap="square" stroke-linejoin="round" fill="none" stroke="#e74c3c" d="M197.24164 83.67855H217.24164"/>
<text xml:space="preserve" transform="matrix(1 0 -0 1 -10 169)" font-size="9.96264" font-family="CMBX10" font-weight="bold"><tspan y="-82.92259" x="225.24164">W</tspan></text>
<text xml:space="preserve" transform="matrix(1 0 -0 1 -10 169)" font-size="6.973848" font-family="CMMI7" font-style="italic"><tspan y="-81.428218" x="235.7254">Q</tspan></text>
<text xml:space="preserve" transform="matrix(1 0 -0 1 -10 169)" font-size="9.96264" font-family="CMBX10" font-weight="bold"><tspan y="-82.92259" x="242.49779">W</tspan></text>
<text xml:space="preserve" transform="matrix(1 0 -0 1 -10 169)" font-size="6.973848" font-family="CMSY7" font-style="italic"><tspan y="-86.53796" x="254.50133">&#x22a4;</tspan></text>
<text xml:space="preserve" transform="matrix(1 0 -0 1 -10 169)" font-size="6.973848" font-family="CMMI7" font-style="italic"><tspan y="-80.17855" x="252.98157">K</tspan></text>
<path transform="matrix(1,0,0,-1,-10,169)" stroke-width="1.5" stroke-linecap="butt" stroke-dasharray="5.55,2.4" stroke-linejoin="round" fill="none" stroke="#f1c40f" d="M197.24164 69.74137H217.24164"/>
<text xml:space="preserve" transform="matrix(1 0 -0 1 -10 169)" font-size="9.96264" font-family="CMBX10" font-weight="bold"><tspan y="-67.735759" x="225.24164">W</tspan></text>
<text xml:space="preserve" transform="matrix(1 0 -0 1 -10 169)" font-size="6.973848" font-family="CMMI7" font-style="italic"><tspan y="-66.24138" x="235.7254">K</tspan></text>
<path transform="matrix(1,0,0,-1,-10,169)" stroke-width="1.5" stroke-linecap="butt" stroke-dasharray="1.5,2.475" stroke-linejoin="round" fill="none" stroke="#2980b9" d="M197.24164 55.055498H217.24164"/>
<text xml:space="preserve" transform="matrix(1 0 -0 1 -10 169)" font-size="9.96264" font-family="CMBX10" font-weight="bold"><tspan y="-53.049879" x="225.24164">W</tspan></text>
<text xml:space="preserve" transform="matrix(1 0 -0 1 -10 169)" font-size="6.973848" font-family="CMMI7" font-style="italic"><tspan y="-51.555498" x="235.7254">Q</tspan></text>
</g>
</g>
</g>
</svg>
