<?xml version="1.0" encoding="utf-8" standalone="no"?>
<!DOCTYPE svg PUBLIC "-//W3C//DTD SVG 1.1//EN"
  "http://www.w3.org/Graphics/SVG/1.1/DTD/svg11.dtd">
<svg xmlns:xlink="http://www.w3.org/1999/xlink" width="460.8pt" height="345.6pt" viewBox="0 0 460.8 345.6" xmlns="http://www.w3.org/2000/svg" version="1.1">
 <metadata>
  <rdf:RDF xmlns:dc="http://purl.org/dc/elements/1.1/" xmlns:cc="http://creativecommons.org/ns#" xmlns:rdf="http://www.w3.org/1999/02/22-rdf-syntax-ns#">
   <cc:Work>
    <dc:type rdf:resource="http://purl.org/dc/dcmitype/StillImage"/>
    <dc:date>2025-03-07T09:51:46.888971</dc:date>
    <dc:format>image/svg+xml</dc:format>
    <dc:creator>
     <cc:Agent>
      <dc:title>Matplotlib v3.10.1, https://matplotlib.org/</dc:title>
     </cc:Agent>
    </dc:creator>
   </cc:Work>
  </rdf:RDF>
 </metadata>
 <defs>
  <style type="text/css">*{stroke-linejoin: round; stroke-linecap: butt}</style>
 </defs>
 <g id="figure_1">
  <g id="patch_1">
   <path d="M 0 345.6 
L 460.8 345.6 
L 460.8 0 
L 0 0 
L 0 345.6 
z
" style="fill: none"/>
  </g>
  <g id="axes_1">
   <g id="patch_2">
    <path d="M 57.6 307.584 
L 414.72 307.584 
L 414.72 41.472 
L 57.6 41.472 
L 57.6 307.584 
z
" style="fill: none"/>
   </g>
   <g id="LineCollection_1">
    <path d="M 82.276292 120.498867 
L 306.467364 120.498867 
" clip-path="url(#pc7fc9608ad)" style="fill: none; stroke: #000000"/>
   </g>
   <g id="LineCollection_2">
    <path d="M 249.800007 151.658434 
L 306.467364 151.658434 
" clip-path="url(#pc7fc9608ad)" style="fill: none; stroke: #000000"/>
   </g>
   <g id="LineCollection_3">
    <path d="M 230.077809 115.622497 
L 306.467364 115.622497 
" clip-path="url(#pc7fc9608ad)" style="fill: none; stroke: #000000"/>
   </g>
   <g id="LineCollection_4">
    <path d="M 275.28401 223.145833 
L 306.467364 223.145833 
" clip-path="url(#pc7fc9608ad)" style="fill: none; stroke: #000000"/>
   </g>
   <g id="LineCollection_5">
    <path d="M 197.318514 51.292914 
L 306.467364 51.292914 
" clip-path="url(#pc7fc9608ad)" style="fill: none; stroke: #000000"/>
   </g>
   <g id="LineCollection_6">
    <path d="M 119.24252 101.467365 
L 306.467364 101.467365 
" clip-path="url(#pc7fc9608ad)" style="fill: none; stroke: #000000"/>
   </g>
   <g id="LineCollection_7">
    <path d="M 143.971368 85.282073 
L 306.467364 85.282073 
" clip-path="url(#pc7fc9608ad)" style="fill: none; stroke: #000000"/>
   </g>
   <g id="LineCollection_8">
    <path d="M 162.417965 66.326489 
L 306.467364 66.326489 
" clip-path="url(#pc7fc9608ad)" style="fill: none; stroke: #000000"/>
   </g>
   <g id="LineCollection_9">
    <path d="M 306.467364 159.235191 
L 386.788742 159.235191 
" clip-path="url(#pc7fc9608ad)" style="fill: none; stroke: #000000"/>
   </g>
   <g id="LineCollection_10">
    <path d="M 277.483581 214.733278 
L 306.467364 214.733278 
" clip-path="url(#pc7fc9608ad)" style="fill: none; stroke: #000000"/>
   </g>
   <g id="line2d_1">
    <path d="M 73.832727 118.674355 
L 76.417556 118.58114 
L 79.519352 118.22392 
L 82.621147 117.601536 
L 85.722941 116.718474 
L 88.824737 115.581113 
L 91.926532 114.197684 
L 95.028327 112.578232 
L 98.647088 110.406402 
L 102.26585 107.95109 
L 105.884611 105.236915 
L 110.020337 101.853307 
L 114.673028 97.741723 
L 119.842688 92.877097 
L 127.080209 85.736758 
L 140.004356 72.933417 
L 145.174016 68.132845 
L 149.826704 64.119957 
L 153.962433 60.870055 
L 157.581197 58.319601 
L 160.682989 56.381686 
L 163.784787 54.697208 
L 166.886579 53.288186 
L 169.471406 52.33949 
L 172.056239 51.607972 
L 174.641066 51.104363 
L 177.225899 50.838649 
L 179.810726 50.820071 
L 182.395553 51.057051 
L 184.980379 51.557161 
L 187.565219 52.327071 
L 190.150045 53.372521 
L 192.734872 54.698307 
L 195.319699 56.30821 
L 197.904526 58.204993 
L 200.489365 60.390408 
L 203.074192 62.865082 
L 205.659019 65.628606 
L 208.243846 68.679458 
L 211.345638 72.715998 
L 214.447442 77.155827 
L 217.549235 81.989968 
L 220.651027 87.207177 
L 224.269784 93.759909 
L 227.888554 100.790196 
L 232.024277 109.371566 
L 236.16 118.487798 
L 240.812701 129.312049 
L 245.982354 141.938754 
L 252.185939 157.736787 
L 260.974362 180.837647 
L 273.381543 213.44167 
L 279.068175 227.792079 
L 284.237816 240.228137 
L 288.373564 249.632498 
L 291.992309 257.385776 
L 295.611079 264.632367 
L 298.712871 270.396029 
L 301.814663 275.708827 
L 304.916455 280.53639 
L 307.501294 284.164977 
L 310.086109 287.415511 
L 312.670948 290.270773 
L 314.73881 292.259295 
L 316.806671 293.976358 
L 318.874532 295.414474 
L 320.942394 296.566547 
L 323.010255 297.425959 
L 325.078117 297.986592 
L 326.629025 298.20759 
L 328.179934 298.255169 
L 329.730817 298.127284 
L 331.281726 297.822102 
L 332.83261 297.337951 
L 334.383518 296.673337 
L 336.45138 295.50419 
L 338.519241 294.009263 
L 340.587102 292.18653 
L 342.654964 290.034585 
L 344.722825 287.552574 
L 346.790687 284.74032 
L 348.858548 281.598267 
L 351.443387 277.208485 
L 354.028227 272.308513 
L 356.613041 266.903393 
L 359.19788 260.999627 
L 361.782695 254.605449 
L 364.884487 246.298786 
L 367.986304 237.319595 
L 371.088096 227.690918 
L 374.706841 215.671476 
L 378.325611 202.850089 
L 382.461334 187.282451 
L 386.597057 170.82221 
L 391.249758 151.356053 
L 396.419411 128.723064 
L 398.487273 119.420578 
L 398.487273 119.420578 
" clip-path="url(#pc7fc9608ad)" style="fill: none; stroke-dasharray: 5.55,2.4; stroke-dashoffset: 0; stroke: #808080; stroke-width: 1.5"/>
   </g>
   <g id="PathCollection_1">
    <path d="M 82.276292 120.562116 
C 82.293066 120.562116 82.309155 120.555452 82.321016 120.543591 
C 82.332877 120.53173 82.339541 120.515641 82.339541 120.498867 
C 82.339541 120.482093 82.332877 120.466004 82.321016 120.454144 
C 82.309155 120.442283 82.293066 120.435618 82.276292 120.435618 
C 82.259519 120.435618 82.243429 120.442283 82.231569 120.454144 
C 82.219708 120.466004 82.213043 120.482093 82.213043 120.498867 
C 82.213043 120.515641 82.219708 120.53173 82.231569 120.543591 
C 82.243429 120.555452 82.259519 120.562116 82.276292 120.562116 
z
" clip-path="url(#pc7fc9608ad)" style="fill: #0ea5e9; stroke: #000000"/>
    <path d="M 249.800007 156.816767 
C 251.168013 156.816767 252.480173 156.273253 253.4475 155.305926 
C 254.414826 154.3386 254.958341 153.02644 254.958341 151.658434 
C 254.958341 150.290428 254.414826 148.978268 253.4475 148.010941 
C 252.480173 147.043615 251.168013 146.5001 249.800007 146.5001 
C 248.432001 146.5001 247.119841 147.043615 246.152515 148.010941 
C 245.185188 148.978268 244.641674 150.290428 244.641674 151.658434 
C 244.641674 153.02644 245.185188 154.3386 246.152515 155.305926 
C 247.119841 156.273253 248.432001 156.816767 249.800007 156.816767 
z
" clip-path="url(#pc7fc9608ad)" style="fill: #0ea5e9; stroke: #000000"/>
    <path d="M 230.077809 119.658027 
C 231.148044 119.658027 232.174589 119.232818 232.931359 118.476048 
C 233.688129 117.719277 234.113338 116.692732 234.113338 115.622497 
C 234.113338 114.552262 233.688129 113.525717 232.931359 112.768947 
C 232.174589 112.012177 231.148044 111.586968 230.077809 111.586968 
C 229.007574 111.586968 227.981029 112.012177 227.224258 112.768947 
C 226.467488 113.525717 226.042279 114.552262 226.042279 115.622497 
C 226.042279 116.692732 226.467488 117.719277 227.224258 118.476048 
C 227.981029 119.232818 229.007574 119.658027 230.077809 119.658027 
z
" clip-path="url(#pc7fc9608ad)" style="fill: #0ea5e9; stroke: #000000"/>
    <path d="M 275.28401 229.5059 
C 276.970719 229.5059 278.588573 228.835763 279.781256 227.643079 
C 280.97394 226.450396 281.644077 224.832542 281.644077 223.145833 
C 281.644077 221.459123 280.97394 219.84127 279.781256 218.648586 
C 278.588573 217.455903 276.970719 216.785766 275.28401 216.785766 
C 273.5973 216.785766 271.979447 217.455903 270.786763 218.648586 
C 269.59408 219.84127 268.923943 221.459123 268.923943 223.145833 
C 268.923943 224.832542 269.59408 226.450396 270.786763 227.643079 
C 271.979447 228.835763 273.5973 229.5059 275.28401 229.5059 
z
" clip-path="url(#pc7fc9608ad)" style="fill: #0ea5e9; stroke: #000000"/>
    <path d="M 197.318514 53.578373 
C 197.924624 53.578373 198.505992 53.337562 198.934577 52.908977 
C 199.363162 52.480392 199.603972 51.899025 199.603972 51.292914 
C 199.603972 50.686804 199.363162 50.105436 198.934577 49.676851 
C 198.505992 49.248266 197.924624 49.007456 197.318514 49.007456 
C 196.712403 49.007456 196.131035 49.248266 195.70245 49.676851 
C 195.273866 50.105436 195.033055 50.686804 195.033055 51.292914 
C 195.033055 51.899025 195.273866 52.480392 195.70245 52.908977 
C 196.131035 53.337562 196.712403 53.578373 197.318514 53.578373 
z
" clip-path="url(#pc7fc9608ad)" style="fill: #0ea5e9; stroke: #000000"/>
    <path d="M 119.24252 101.729732 
C 119.3121 101.729732 119.37884 101.702087 119.428041 101.652887 
C 119.477242 101.603686 119.504886 101.536946 119.504886 101.467365 
C 119.504886 101.397785 119.477242 101.331045 119.428041 101.281844 
C 119.37884 101.232643 119.3121 101.204999 119.24252 101.204999 
C 119.172939 101.204999 119.106199 101.232643 119.056999 101.281844 
C 119.007798 101.331045 118.980153 101.397785 118.980153 101.467365 
C 118.980153 101.536946 119.007798 101.603686 119.056999 101.652887 
C 119.106199 101.702087 119.172939 101.729732 119.24252 101.729732 
z
" clip-path="url(#pc7fc9608ad)" style="fill: #0ea5e9; stroke: #000000"/>
    <path d="M 143.971368 85.871252 
C 144.12762 85.871252 144.277494 85.809173 144.387981 85.698686 
C 144.498468 85.588199 144.560547 85.438325 144.560547 85.282073 
C 144.560547 85.125821 144.498468 84.975948 144.387981 84.865461 
C 144.277494 84.754974 144.12762 84.692894 143.971368 84.692894 
C 143.815116 84.692894 143.665243 84.754974 143.554756 84.865461 
C 143.444269 84.975948 143.382189 85.125821 143.382189 85.282073 
C 143.382189 85.438325 143.444269 85.588199 143.554756 85.698686 
C 143.665243 85.809173 143.815116 85.871252 143.971368 85.871252 
z
" clip-path="url(#pc7fc9608ad)" style="fill: #0ea5e9; stroke: #000000"/>
    <path d="M 162.417965 67.326429 
C 162.683152 67.326429 162.937514 67.221069 163.12503 67.033553 
C 163.312545 66.846037 163.417905 66.591676 163.417905 66.326489 
C 163.417905 66.061301 163.312545 65.80694 163.12503 65.619424 
C 162.937514 65.431909 162.683152 65.326549 162.417965 65.326549 
C 162.152778 65.326549 161.898416 65.431909 161.710901 65.619424 
C 161.523385 65.80694 161.418025 66.061301 161.418025 66.326489 
C 161.418025 66.591676 161.523385 66.846037 161.710901 67.033553 
C 161.898416 67.221069 162.152778 67.326429 162.417965 67.326429 
z
" clip-path="url(#pc7fc9608ad)" style="fill: #0ea5e9; stroke: #000000"/>
    <path d="M 386.788742 163.044697 
C 387.799035 163.044697 388.768085 162.643303 389.48247 161.928918 
C 390.196854 161.214533 390.598248 160.245483 390.598248 159.235191 
C 390.598248 158.224898 390.196854 157.255848 389.48247 156.541463 
C 388.768085 155.827078 387.799035 155.425685 386.788742 155.425685 
C 385.778449 155.425685 384.809399 155.827078 384.095015 156.541463 
C 383.38063 157.255848 382.979236 158.224898 382.979236 159.235191 
C 382.979236 160.245483 383.38063 161.214533 384.095015 161.928918 
C 384.809399 162.643303 385.778449 163.044697 386.788742 163.044697 
z
" clip-path="url(#pc7fc9608ad)" style="fill: #0ea5e9; stroke: #000000"/>
    <path d="M 277.483581 221.17257 
C 279.191301 221.17257 280.829308 220.494086 282.036848 219.286545 
C 283.244389 218.079005 283.922873 216.440998 283.922873 214.733278 
C 283.922873 213.025558 283.244389 211.387551 282.036848 210.180011 
C 280.829308 208.97247 279.191301 208.293985 277.483581 208.293985 
C 275.775861 208.293985 274.137854 208.97247 272.930313 210.180011 
C 271.722773 211.387551 271.044288 213.025558 271.044288 214.733278 
C 271.044288 216.440998 271.722773 218.079005 272.930313 219.286545 
C 274.137854 220.494086 275.775861 221.17257 277.483581 221.17257 
z
" clip-path="url(#pc7fc9608ad)" style="fill: #0ea5e9; stroke: #000000"/>
   </g>
   <g id="matplotlib.axis_1">
    <g id="xtick_1">
     <g id="line2d_2">
      <defs>
       <path id="maa1dae2b07" d="M 0 0 
L 0 3.5 
" style="stroke: #000000; stroke-width: 0.8"/>
      </defs>
      <g>
       <use xlink:href="#maa1dae2b07" x="73.832727" y="307.584" style="stroke: #000000; stroke-width: 0.8"/>
      </g>
     </g>
     <g id="text_1">
      <!-- 0 -->
      <g transform="translate(70.651477 322.182437) scale(0.1 -0.1)">
       <defs>
        <path id="DejaVuSans-30" d="M 2034 4250 
Q 1547 4250 1301 3770 
Q 1056 3291 1056 2328 
Q 1056 1369 1301 889 
Q 1547 409 2034 409 
Q 2525 409 2770 889 
Q 3016 1369 3016 2328 
Q 3016 3291 2770 3770 
Q 2525 4250 2034 4250 
z
M 2034 4750 
Q 2819 4750 3233 4129 
Q 3647 3509 3647 2328 
Q 3647 1150 3233 529 
Q 2819 -91 2034 -91 
Q 1250 -91 836 529 
Q 422 1150 422 2328 
Q 422 3509 836 4129 
Q 1250 4750 2034 4750 
z
" transform="scale(0.015625)"/>
       </defs>
       <use xlink:href="#DejaVuSans-30"/>
      </g>
     </g>
    </g>
    <g id="xtick_2">
     <g id="line2d_3">
      <g>
       <use xlink:href="#maa1dae2b07" x="125.529313" y="307.584" style="stroke: #000000; stroke-width: 0.8"/>
      </g>
     </g>
     <g id="text_2">
      <!-- 1 -->
      <g transform="translate(122.348063 322.182437) scale(0.1 -0.1)">
       <defs>
        <path id="DejaVuSans-31" d="M 794 531 
L 1825 531 
L 1825 4091 
L 703 3866 
L 703 4441 
L 1819 4666 
L 2450 4666 
L 2450 531 
L 3481 531 
L 3481 0 
L 794 0 
L 794 531 
z
" transform="scale(0.015625)"/>
       </defs>
       <use xlink:href="#DejaVuSans-31"/>
      </g>
     </g>
    </g>
    <g id="xtick_3">
     <g id="line2d_4">
      <g>
       <use xlink:href="#maa1dae2b07" x="177.225899" y="307.584" style="stroke: #000000; stroke-width: 0.8"/>
      </g>
     </g>
     <g id="text_3">
      <!-- 2 -->
      <g transform="translate(174.044649 322.182437) scale(0.1 -0.1)">
       <defs>
        <path id="DejaVuSans-32" d="M 1228 531 
L 3431 531 
L 3431 0 
L 469 0 
L 469 531 
Q 828 903 1448 1529 
Q 2069 2156 2228 2338 
Q 2531 2678 2651 2914 
Q 2772 3150 2772 3378 
Q 2772 3750 2511 3984 
Q 2250 4219 1831 4219 
Q 1534 4219 1204 4116 
Q 875 4013 500 3803 
L 500 4441 
Q 881 4594 1212 4672 
Q 1544 4750 1819 4750 
Q 2544 4750 2975 4387 
Q 3406 4025 3406 3419 
Q 3406 3131 3298 2873 
Q 3191 2616 2906 2266 
Q 2828 2175 2409 1742 
Q 1991 1309 1228 531 
z
" transform="scale(0.015625)"/>
       </defs>
       <use xlink:href="#DejaVuSans-32"/>
      </g>
     </g>
    </g>
    <g id="xtick_4">
     <g id="line2d_5">
      <g>
       <use xlink:href="#maa1dae2b07" x="228.922485" y="307.584" style="stroke: #000000; stroke-width: 0.8"/>
      </g>
     </g>
     <g id="text_4">
      <!-- 3 -->
      <g transform="translate(225.741235 322.182437) scale(0.1 -0.1)">
       <defs>
        <path id="DejaVuSans-33" d="M 2597 2516 
Q 3050 2419 3304 2112 
Q 3559 1806 3559 1356 
Q 3559 666 3084 287 
Q 2609 -91 1734 -91 
Q 1441 -91 1130 -33 
Q 819 25 488 141 
L 488 750 
Q 750 597 1062 519 
Q 1375 441 1716 441 
Q 2309 441 2620 675 
Q 2931 909 2931 1356 
Q 2931 1769 2642 2001 
Q 2353 2234 1838 2234 
L 1294 2234 
L 1294 2753 
L 1863 2753 
Q 2328 2753 2575 2939 
Q 2822 3125 2822 3475 
Q 2822 3834 2567 4026 
Q 2313 4219 1838 4219 
Q 1578 4219 1281 4162 
Q 984 4106 628 3988 
L 628 4550 
Q 988 4650 1302 4700 
Q 1616 4750 1894 4750 
Q 2613 4750 3031 4423 
Q 3450 4097 3450 3541 
Q 3450 3153 3228 2886 
Q 3006 2619 2597 2516 
z
" transform="scale(0.015625)"/>
       </defs>
       <use xlink:href="#DejaVuSans-33"/>
      </g>
     </g>
    </g>
    <g id="xtick_5">
     <g id="line2d_6">
      <g>
       <use xlink:href="#maa1dae2b07" x="280.619071" y="307.584" style="stroke: #000000; stroke-width: 0.8"/>
      </g>
     </g>
     <g id="text_5">
      <!-- 4 -->
      <g transform="translate(277.437821 322.182437) scale(0.1 -0.1)">
       <defs>
        <path id="DejaVuSans-34" d="M 2419 4116 
L 825 1625 
L 2419 1625 
L 2419 4116 
z
M 2253 4666 
L 3047 4666 
L 3047 1625 
L 3713 1625 
L 3713 1100 
L 3047 1100 
L 3047 0 
L 2419 0 
L 2419 1100 
L 313 1100 
L 313 1709 
L 2253 4666 
z
" transform="scale(0.015625)"/>
       </defs>
       <use xlink:href="#DejaVuSans-34"/>
      </g>
     </g>
    </g>
    <g id="xtick_6">
     <g id="line2d_7">
      <g>
       <use xlink:href="#maa1dae2b07" x="332.315657" y="307.584" style="stroke: #000000; stroke-width: 0.8"/>
      </g>
     </g>
     <g id="text_6">
      <!-- 5 -->
      <g transform="translate(329.134407 322.182437) scale(0.1 -0.1)">
       <defs>
        <path id="DejaVuSans-35" d="M 691 4666 
L 3169 4666 
L 3169 4134 
L 1269 4134 
L 1269 2991 
Q 1406 3038 1543 3061 
Q 1681 3084 1819 3084 
Q 2600 3084 3056 2656 
Q 3513 2228 3513 1497 
Q 3513 744 3044 326 
Q 2575 -91 1722 -91 
Q 1428 -91 1123 -41 
Q 819 9 494 109 
L 494 744 
Q 775 591 1075 516 
Q 1375 441 1709 441 
Q 2250 441 2565 725 
Q 2881 1009 2881 1497 
Q 2881 1984 2565 2268 
Q 2250 2553 1709 2553 
Q 1456 2553 1204 2497 
Q 953 2441 691 2322 
L 691 4666 
z
" transform="scale(0.015625)"/>
       </defs>
       <use xlink:href="#DejaVuSans-35"/>
      </g>
     </g>
    </g>
    <g id="xtick_7">
     <g id="line2d_8">
      <g>
       <use xlink:href="#maa1dae2b07" x="384.012242" y="307.584" style="stroke: #000000; stroke-width: 0.8"/>
      </g>
     </g>
     <g id="text_7">
      <!-- 6 -->
      <g transform="translate(380.830992 322.182437) scale(0.1 -0.1)">
       <defs>
        <path id="DejaVuSans-36" d="M 2113 2584 
Q 1688 2584 1439 2293 
Q 1191 2003 1191 1497 
Q 1191 994 1439 701 
Q 1688 409 2113 409 
Q 2538 409 2786 701 
Q 3034 994 3034 1497 
Q 3034 2003 2786 2293 
Q 2538 2584 2113 2584 
z
M 3366 4563 
L 3366 3988 
Q 3128 4100 2886 4159 
Q 2644 4219 2406 4219 
Q 1781 4219 1451 3797 
Q 1122 3375 1075 2522 
Q 1259 2794 1537 2939 
Q 1816 3084 2150 3084 
Q 2853 3084 3261 2657 
Q 3669 2231 3669 1497 
Q 3669 778 3244 343 
Q 2819 -91 2113 -91 
Q 1303 -91 875 529 
Q 447 1150 447 2328 
Q 447 3434 972 4092 
Q 1497 4750 2381 4750 
Q 2619 4750 2861 4703 
Q 3103 4656 3366 4563 
z
" transform="scale(0.015625)"/>
       </defs>
       <use xlink:href="#DejaVuSans-36"/>
      </g>
     </g>
    </g>
    <g id="text_8">
     <!-- Key -->
     <g transform="translate(221.65625 340.419625) scale(0.16 -0.16)">
      <defs>
       <path id="DejaVuSans-4b" d="M 628 4666 
L 1259 4666 
L 1259 2694 
L 3353 4666 
L 4166 4666 
L 1850 2491 
L 4331 0 
L 3500 0 
L 1259 2247 
L 1259 0 
L 628 0 
L 628 4666 
z
" transform="scale(0.015625)"/>
       <path id="DejaVuSans-65" d="M 3597 1894 
L 3597 1613 
L 953 1613 
Q 991 1019 1311 708 
Q 1631 397 2203 397 
Q 2534 397 2845 478 
Q 3156 559 3463 722 
L 3463 178 
Q 3153 47 2828 -22 
Q 2503 -91 2169 -91 
Q 1331 -91 842 396 
Q 353 884 353 1716 
Q 353 2575 817 3079 
Q 1281 3584 2069 3584 
Q 2775 3584 3186 3129 
Q 3597 2675 3597 1894 
z
M 3022 2063 
Q 3016 2534 2758 2815 
Q 2500 3097 2075 3097 
Q 1594 3097 1305 2825 
Q 1016 2553 972 2059 
L 3022 2063 
z
" transform="scale(0.015625)"/>
       <path id="DejaVuSans-79" d="M 2059 -325 
Q 1816 -950 1584 -1140 
Q 1353 -1331 966 -1331 
L 506 -1331 
L 506 -850 
L 844 -850 
Q 1081 -850 1212 -737 
Q 1344 -625 1503 -206 
L 1606 56 
L 191 3500 
L 800 3500 
L 1894 763 
L 2988 3500 
L 3597 3500 
L 2059 -325 
z
" transform="scale(0.015625)"/>
      </defs>
      <use xlink:href="#DejaVuSans-4b"/>
      <use xlink:href="#DejaVuSans-65" transform="translate(60.576172 0)"/>
      <use xlink:href="#DejaVuSans-79" transform="translate(122.099609 0)"/>
     </g>
    </g>
   </g>
   <g id="matplotlib.axis_2">
    <g id="ytick_1">
     <g id="line2d_9">
      <defs>
       <path id="m71b7cf40c7" d="M 0 0 
L -3.5 0 
" style="stroke: #000000; stroke-width: 0.8"/>
      </defs>
      <g>
       <use xlink:href="#m71b7cf40c7" x="57.6" y="305.180179" style="stroke: #000000; stroke-width: 0.8"/>
      </g>
     </g>
     <g id="text_9">
      <!-- −10 -->
      <g transform="translate(29.495313 308.979398) scale(0.1 -0.1)">
       <defs>
        <path id="DejaVuSans-2212" d="M 678 2272 
L 4684 2272 
L 4684 1741 
L 678 1741 
L 678 2272 
z
" transform="scale(0.015625)"/>
       </defs>
       <use xlink:href="#DejaVuSans-2212"/>
       <use xlink:href="#DejaVuSans-31" transform="translate(83.789062 0)"/>
       <use xlink:href="#DejaVuSans-30" transform="translate(147.412109 0)"/>
      </g>
     </g>
    </g>
    <g id="ytick_2">
     <g id="line2d_10">
      <g>
       <use xlink:href="#m71b7cf40c7" x="57.6" y="267.879014" style="stroke: #000000; stroke-width: 0.8"/>
      </g>
     </g>
     <g id="text_10">
      <!-- −8 -->
      <g transform="translate(35.857813 271.678233) scale(0.1 -0.1)">
       <defs>
        <path id="DejaVuSans-38" d="M 2034 2216 
Q 1584 2216 1326 1975 
Q 1069 1734 1069 1313 
Q 1069 891 1326 650 
Q 1584 409 2034 409 
Q 2484 409 2743 651 
Q 3003 894 3003 1313 
Q 3003 1734 2745 1975 
Q 2488 2216 2034 2216 
z
M 1403 2484 
Q 997 2584 770 2862 
Q 544 3141 544 3541 
Q 544 4100 942 4425 
Q 1341 4750 2034 4750 
Q 2731 4750 3128 4425 
Q 3525 4100 3525 3541 
Q 3525 3141 3298 2862 
Q 3072 2584 2669 2484 
Q 3125 2378 3379 2068 
Q 3634 1759 3634 1313 
Q 3634 634 3220 271 
Q 2806 -91 2034 -91 
Q 1263 -91 848 271 
Q 434 634 434 1313 
Q 434 1759 690 2068 
Q 947 2378 1403 2484 
z
M 1172 3481 
Q 1172 3119 1398 2916 
Q 1625 2713 2034 2713 
Q 2441 2713 2670 2916 
Q 2900 3119 2900 3481 
Q 2900 3844 2670 4047 
Q 2441 4250 2034 4250 
Q 1625 4250 1398 4047 
Q 1172 3844 1172 3481 
z
" transform="scale(0.015625)"/>
       </defs>
       <use xlink:href="#DejaVuSans-2212"/>
       <use xlink:href="#DejaVuSans-38" transform="translate(83.789062 0)"/>
      </g>
     </g>
    </g>
    <g id="ytick_3">
     <g id="line2d_11">
      <g>
       <use xlink:href="#m71b7cf40c7" x="57.6" y="230.577849" style="stroke: #000000; stroke-width: 0.8"/>
      </g>
     </g>
     <g id="text_11">
      <!-- −6 -->
      <g transform="translate(35.857813 234.377068) scale(0.1 -0.1)">
       <use xlink:href="#DejaVuSans-2212"/>
       <use xlink:href="#DejaVuSans-36" transform="translate(83.789062 0)"/>
      </g>
     </g>
    </g>
    <g id="ytick_4">
     <g id="line2d_12">
      <g>
       <use xlink:href="#m71b7cf40c7" x="57.6" y="193.276684" style="stroke: #000000; stroke-width: 0.8"/>
      </g>
     </g>
     <g id="text_12">
      <!-- −4 -->
      <g transform="translate(35.857813 197.075903) scale(0.1 -0.1)">
       <use xlink:href="#DejaVuSans-2212"/>
       <use xlink:href="#DejaVuSans-34" transform="translate(83.789062 0)"/>
      </g>
     </g>
    </g>
    <g id="ytick_5">
     <g id="line2d_13">
      <g>
       <use xlink:href="#m71b7cf40c7" x="57.6" y="155.975519" style="stroke: #000000; stroke-width: 0.8"/>
      </g>
     </g>
     <g id="text_13">
      <!-- −2 -->
      <g transform="translate(35.857813 159.774738) scale(0.1 -0.1)">
       <use xlink:href="#DejaVuSans-2212"/>
       <use xlink:href="#DejaVuSans-32" transform="translate(83.789062 0)"/>
      </g>
     </g>
    </g>
    <g id="ytick_6">
     <g id="line2d_14">
      <g>
       <use xlink:href="#m71b7cf40c7" x="57.6" y="118.674355" style="stroke: #000000; stroke-width: 0.8"/>
      </g>
     </g>
     <g id="text_14">
      <!-- 0 -->
      <g transform="translate(44.2375 122.473573) scale(0.1 -0.1)">
       <use xlink:href="#DejaVuSans-30"/>
      </g>
     </g>
    </g>
    <g id="ytick_7">
     <g id="line2d_15">
      <g>
       <use xlink:href="#m71b7cf40c7" x="57.6" y="81.37319" style="stroke: #000000; stroke-width: 0.8"/>
      </g>
     </g>
     <g id="text_15">
      <!-- 2 -->
      <g transform="translate(44.2375 85.172408) scale(0.1 -0.1)">
       <use xlink:href="#DejaVuSans-32"/>
      </g>
     </g>
    </g>
    <g id="ytick_8">
     <g id="line2d_16">
      <g>
       <use xlink:href="#m71b7cf40c7" x="57.6" y="44.072025" style="stroke: #000000; stroke-width: 0.8"/>
      </g>
     </g>
     <g id="text_16">
      <!-- 4 -->
      <g transform="translate(44.2375 47.871243) scale(0.1 -0.1)">
       <use xlink:href="#DejaVuSans-34"/>
      </g>
     </g>
    </g>
    <g id="text_17">
     <!-- Value -->
     <g transform="translate(22.167812 196.498) rotate(-90) scale(0.16 -0.16)">
      <defs>
       <path id="DejaVuSans-56" d="M 1831 0 
L 50 4666 
L 709 4666 
L 2188 738 
L 3669 4666 
L 4325 4666 
L 2547 0 
L 1831 0 
z
" transform="scale(0.015625)"/>
       <path id="DejaVuSans-61" d="M 2194 1759 
Q 1497 1759 1228 1600 
Q 959 1441 959 1056 
Q 959 750 1161 570 
Q 1363 391 1709 391 
Q 2188 391 2477 730 
Q 2766 1069 2766 1631 
L 2766 1759 
L 2194 1759 
z
M 3341 1997 
L 3341 0 
L 2766 0 
L 2766 531 
Q 2569 213 2275 61 
Q 1981 -91 1556 -91 
Q 1019 -91 701 211 
Q 384 513 384 1019 
Q 384 1609 779 1909 
Q 1175 2209 1959 2209 
L 2766 2209 
L 2766 2266 
Q 2766 2663 2505 2880 
Q 2244 3097 1772 3097 
Q 1472 3097 1187 3025 
Q 903 2953 641 2809 
L 641 3341 
Q 956 3463 1253 3523 
Q 1550 3584 1831 3584 
Q 2591 3584 2966 3190 
Q 3341 2797 3341 1997 
z
" transform="scale(0.015625)"/>
       <path id="DejaVuSans-6c" d="M 603 4863 
L 1178 4863 
L 1178 0 
L 603 0 
L 603 4863 
z
" transform="scale(0.015625)"/>
       <path id="DejaVuSans-75" d="M 544 1381 
L 544 3500 
L 1119 3500 
L 1119 1403 
Q 1119 906 1312 657 
Q 1506 409 1894 409 
Q 2359 409 2629 706 
Q 2900 1003 2900 1516 
L 2900 3500 
L 3475 3500 
L 3475 0 
L 2900 0 
L 2900 538 
Q 2691 219 2414 64 
Q 2138 -91 1772 -91 
Q 1169 -91 856 284 
Q 544 659 544 1381 
z
M 1991 3584 
L 1991 3584 
z
" transform="scale(0.015625)"/>
      </defs>
      <use xlink:href="#DejaVuSans-56"/>
      <use xlink:href="#DejaVuSans-61" transform="translate(60.658203 0)"/>
      <use xlink:href="#DejaVuSans-6c" transform="translate(121.9375 0)"/>
      <use xlink:href="#DejaVuSans-75" transform="translate(149.720703 0)"/>
      <use xlink:href="#DejaVuSans-65" transform="translate(213.099609 0)"/>
     </g>
    </g>
   </g>
   <g id="LineCollection_11">
    <path d="M 306.467364 298.258709 
L 306.467364 50.797287 
" clip-path="url(#pc7fc9608ad)" style="fill: none; stroke: #000000; stroke-width: 1.5"/>
   </g>
   <g id="PathCollection_2">
    <path d="M 306.404115 120.562116 
L 306.530613 120.562116 
L 306.530613 120.435618 
L 306.404115 120.435618 
z
" clip-path="url(#pc7fc9608ad)" style="fill: #f97316; stroke: #000000"/>
    <path d="M 301.30903 156.816767 
L 311.625697 156.816767 
L 311.625697 146.5001 
L 301.30903 146.5001 
z
" clip-path="url(#pc7fc9608ad)" style="fill: #f97316; stroke: #000000"/>
    <path d="M 302.431834 119.658027 
L 310.502893 119.658027 
L 310.502893 111.586968 
L 302.431834 111.586968 
z
" clip-path="url(#pc7fc9608ad)" style="fill: #f97316; stroke: #000000"/>
    <path d="M 300.107297 229.5059 
L 312.827431 229.5059 
L 312.827431 216.785766 
L 300.107297 216.785766 
z
" clip-path="url(#pc7fc9608ad)" style="fill: #f97316; stroke: #000000"/>
    <path d="M 304.181905 53.578373 
L 308.752822 53.578373 
L 308.752822 49.007456 
L 304.181905 49.007456 
z
" clip-path="url(#pc7fc9608ad)" style="fill: #f97316; stroke: #000000"/>
    <path d="M 306.204997 101.729732 
L 306.72973 101.729732 
L 306.72973 101.204999 
L 306.204997 101.204999 
z
" clip-path="url(#pc7fc9608ad)" style="fill: #f97316; stroke: #000000"/>
    <path d="M 305.878185 85.871252 
L 307.056543 85.871252 
L 307.056543 84.692894 
L 305.878185 84.692894 
z
" clip-path="url(#pc7fc9608ad)" style="fill: #f97316; stroke: #000000"/>
    <path d="M 305.467424 67.326429 
L 307.467304 67.326429 
L 307.467304 65.326549 
L 305.467424 65.326549 
z
" clip-path="url(#pc7fc9608ad)" style="fill: #f97316; stroke: #000000"/>
    <path d="M 302.657858 163.044697 
L 310.27687 163.044697 
L 310.27687 155.425685 
L 302.657858 155.425685 
z
" clip-path="url(#pc7fc9608ad)" style="fill: #f97316; stroke: #000000"/>
    <path d="M 300.028071 221.17257 
L 312.906656 221.17257 
L 312.906656 208.293985 
L 300.028071 208.293985 
z
" clip-path="url(#pc7fc9608ad)" style="fill: #f97316; stroke: #000000"/>
   </g>
   <g id="patch_3">
    <path d="M 57.6 307.584 
L 57.6 41.472 
" style="fill: none; stroke: #000000; stroke-width: 0.8; stroke-linejoin: miter; stroke-linecap: square"/>
   </g>
   <g id="patch_4">
    <path d="M 57.6 307.584 
L 414.72 307.584 
" style="fill: none; stroke: #000000; stroke-width: 0.8; stroke-linejoin: miter; stroke-linecap: square"/>
   </g>
   <g id="text_18">
    <!-- Query -->
    <g transform="translate(300.00529 342.481344) scale(0.16 -0.16)">
     <defs>
      <path id="DejaVuSans-51" d="M 2522 4238 
Q 1834 4238 1429 3725 
Q 1025 3213 1025 2328 
Q 1025 1447 1429 934 
Q 1834 422 2522 422 
Q 3209 422 3611 934 
Q 4013 1447 4013 2328 
Q 4013 3213 3611 3725 
Q 3209 4238 2522 4238 
z
M 3406 84 
L 4238 -825 
L 3475 -825 
L 2784 -78 
Q 2681 -84 2626 -87 
Q 2572 -91 2522 -91 
Q 1538 -91 948 567 
Q 359 1225 359 2328 
Q 359 3434 948 4092 
Q 1538 4750 2522 4750 
Q 3503 4750 4090 4092 
Q 4678 3434 4678 2328 
Q 4678 1516 4351 937 
Q 4025 359 3406 84 
z
" transform="scale(0.015625)"/>
      <path id="DejaVuSans-72" d="M 2631 2963 
Q 2534 3019 2420 3045 
Q 2306 3072 2169 3072 
Q 1681 3072 1420 2755 
Q 1159 2438 1159 1844 
L 1159 0 
L 581 0 
L 581 3500 
L 1159 3500 
L 1159 2956 
Q 1341 3275 1631 3429 
Q 1922 3584 2338 3584 
Q 2397 3584 2469 3576 
Q 2541 3569 2628 3553 
L 2631 2963 
z
" transform="scale(0.015625)"/>
     </defs>
     <use xlink:href="#DejaVuSans-51"/>
     <use xlink:href="#DejaVuSans-75" transform="translate(78.710938 0)"/>
     <use xlink:href="#DejaVuSans-65" transform="translate(142.089844 0)"/>
     <use xlink:href="#DejaVuSans-72" transform="translate(203.613281 0)"/>
     <use xlink:href="#DejaVuSans-79" transform="translate(244.726562 0)"/>
    </g>
   </g>
  </g>
 </g>
 <defs>
  <clipPath id="pc7fc9608ad">
   <rect x="57.6" y="41.472" width="357.12" height="266.112"/>
  </clipPath>
 </defs>
</svg>
