<?xml version="1.0" encoding="utf-8" standalone="no"?>
<!DOCTYPE svg PUBLIC "-//W3C//DTD SVG 1.1//EN"
  "http://www.w3.org/Graphics/SVG/1.1/DTD/svg11.dtd">
<svg xmlns:xlink="http://www.w3.org/1999/xlink" width="404.709687pt" height="305.536038pt" viewBox="0 0 404.709687 305.536038" xmlns="http://www.w3.org/2000/svg" version="1.1">
 <metadata>
  <rdf:RDF xmlns:dc="http://purl.org/dc/elements/1.1/" xmlns:cc="http://creativecommons.org/ns#" xmlns:rdf="http://www.w3.org/1999/02/22-rdf-syntax-ns#">
   <cc:Work>
    <dc:type rdf:resource="http://purl.org/dc/dcmitype/StillImage"/>
    <dc:date>2025-03-11T13:45:50.544630</dc:date>
    <dc:format>image/svg+xml</dc:format>
    <dc:creator>
     <cc:Agent>
      <dc:title>Matplotlib v3.10.1, https://matplotlib.org/</dc:title>
     </cc:Agent>
    </dc:creator>
   </cc:Work>
  </rdf:RDF>
 </metadata>
 <defs>
  <style type="text/css">*{stroke-linejoin: round; stroke-linecap: butt}</style>
 </defs>
 <g id="figure_1">
  <g id="patch_1">
   <path d="M 0 305.536038 
L 404.709687 305.536038 
L 404.709687 0 
L 0 0 
L 0 305.536038 
z
" style="fill: none"/>
  </g>
  <g id="axes_1">
   <g id="patch_2">
    <path d="M 47.589688 267.311194 
L 404.709688 267.311194 
L 404.709688 1.199194 
L 47.589688 1.199194 
L 47.589688 267.311194 
z
" style="fill: none"/>
   </g>
   <g id="LineCollection_1">
    <path d="M 72.26598 80.226061 
L 296.457051 80.226061 
" clip-path="url(#p4a6f53a418)" style="fill: none; stroke: #000000"/>
   </g>
   <g id="LineCollection_2">
    <path d="M 239.789695 111.385628 
L 296.457051 111.385628 
" clip-path="url(#p4a6f53a418)" style="fill: none; stroke: #000000"/>
   </g>
   <g id="LineCollection_3">
    <path d="M 220.067496 75.349691 
L 296.457051 75.349691 
" clip-path="url(#p4a6f53a418)" style="fill: none; stroke: #000000"/>
   </g>
   <g id="LineCollection_4">
    <path d="M 265.273697 182.873027 
L 296.457051 182.873027 
" clip-path="url(#p4a6f53a418)" style="fill: none; stroke: #000000"/>
   </g>
   <g id="LineCollection_5">
    <path d="M 187.308201 11.020108 
L 296.457051 11.020108 
" clip-path="url(#p4a6f53a418)" style="fill: none; stroke: #000000"/>
   </g>
   <g id="LineCollection_6">
    <path d="M 109.232207 61.19456 
L 296.457051 61.19456 
" clip-path="url(#p4a6f53a418)" style="fill: none; stroke: #000000"/>
   </g>
   <g id="LineCollection_7">
    <path d="M 133.961056 45.009267 
L 296.457051 45.009267 
" clip-path="url(#p4a6f53a418)" style="fill: none; stroke: #000000"/>
   </g>
   <g id="LineCollection_8">
    <path d="M 152.407653 26.053683 
L 296.457051 26.053683 
" clip-path="url(#p4a6f53a418)" style="fill: none; stroke: #000000"/>
   </g>
   <g id="LineCollection_9">
    <path d="M 296.457051 118.962385 
L 376.77843 118.962385 
" clip-path="url(#p4a6f53a418)" style="fill: none; stroke: #000000"/>
   </g>
   <g id="LineCollection_10">
    <path d="M 267.473268 174.460472 
L 296.457051 174.460472 
" clip-path="url(#p4a6f53a418)" style="fill: none; stroke: #000000"/>
   </g>
   <g id="line2d_1">
    <path d="M 63.822415 78.401549 
L 66.407244 78.308335 
L 69.509039 77.951114 
L 72.610834 77.32873 
L 75.712629 76.445669 
L 78.814424 75.308307 
L 81.91622 73.924878 
L 85.018015 72.305426 
L 88.636775 70.133596 
L 92.255538 67.678284 
L 95.874298 64.964109 
L 100.010024 61.580501 
L 104.662716 57.468917 
L 109.832375 52.604291 
L 117.069897 45.463952 
L 129.994043 32.660611 
L 135.163703 27.860039 
L 139.816391 23.847151 
L 143.95212 20.597249 
L 147.570884 18.046795 
L 150.672676 16.10888 
L 153.774475 14.424402 
L 156.876267 13.01538 
L 159.461094 12.066684 
L 162.045927 11.335167 
L 164.630754 10.831557 
L 167.215587 10.565844 
L 169.800413 10.547265 
L 172.38524 10.784245 
L 174.970067 11.284355 
L 177.554906 12.054265 
L 180.139733 13.099715 
L 182.72456 14.425501 
L 185.309387 16.035404 
L 187.894213 17.932187 
L 190.479053 20.117602 
L 193.063879 22.592276 
L 195.648706 25.3558 
L 198.233533 28.406652 
L 201.335325 32.443192 
L 204.43713 36.883021 
L 207.538922 41.717162 
L 210.640714 46.934371 
L 214.259472 53.487104 
L 217.878242 60.51739 
L 222.013965 69.09876 
L 226.149688 78.214992 
L 230.802388 89.039243 
L 235.972042 101.665948 
L 242.175626 117.463981 
L 250.96405 140.564842 
L 263.371231 173.168864 
L 269.057862 187.519273 
L 274.227503 199.955331 
L 278.363251 209.359692 
L 281.981996 217.11297 
L 285.600766 224.359561 
L 288.702558 230.123223 
L 291.804351 235.436021 
L 294.906143 240.263584 
L 297.490982 243.892171 
L 300.075796 247.142705 
L 302.660636 249.997967 
L 304.728497 251.986489 
L 306.796358 253.703552 
L 308.86422 255.141668 
L 310.932081 256.293741 
L 312.999943 257.153153 
L 315.067804 257.713786 
L 316.618713 257.934784 
L 318.169621 257.982363 
L 319.720505 257.854478 
L 321.271413 257.549296 
L 322.822297 257.065145 
L 324.373206 256.400531 
L 326.441067 255.231384 
L 328.508929 253.736457 
L 330.57679 251.913724 
L 332.644651 249.761779 
L 334.712513 247.279768 
L 336.780374 244.467514 
L 338.848236 241.325461 
L 341.433075 236.935679 
L 344.017914 232.035707 
L 346.602729 226.630588 
L 349.187568 220.726821 
L 351.772382 214.332643 
L 354.874174 206.02598 
L 357.975991 197.046789 
L 361.077784 187.418112 
L 364.696529 175.39867 
L 368.315299 162.577284 
L 372.451022 147.009645 
L 376.586744 130.549404 
L 381.239445 111.083247 
L 386.409099 88.450258 
L 388.47696 79.147772 
L 388.47696 79.147772 
" clip-path="url(#p4a6f53a418)" style="fill: none; stroke-dasharray: 5.55,2.4; stroke-dashoffset: 0; stroke: #808080; stroke-width: 1.5"/>
   </g>
   <g id="PathCollection_1">
    <path d="M 72.26598 80.28931 
C 72.282754 80.28931 72.298843 80.282646 72.310704 80.270785 
C 72.322564 80.258924 72.329229 80.242835 72.329229 80.226061 
C 72.329229 80.209288 72.322564 80.193199 72.310704 80.181338 
C 72.298843 80.169477 72.282754 80.162812 72.26598 80.162812 
C 72.249206 80.162812 72.233117 80.169477 72.221256 80.181338 
C 72.209395 80.193199 72.202731 80.209288 72.202731 80.226061 
C 72.202731 80.242835 72.209395 80.258924 72.221256 80.270785 
C 72.233117 80.282646 72.249206 80.28931 72.26598 80.28931 
z
" clip-path="url(#p4a6f53a418)" style="fill: #0ea5e9; stroke: #000000"/>
    <path d="M 239.789695 116.543961 
C 241.157701 116.543961 242.469861 116.000447 243.437187 115.03312 
C 244.404514 114.065794 244.948028 112.753634 244.948028 111.385628 
C 244.948028 110.017622 244.404514 108.705462 243.437187 107.738135 
C 242.469861 106.770809 241.157701 106.227295 239.789695 106.227295 
C 238.421689 106.227295 237.109529 106.770809 236.142202 107.738135 
C 235.174876 108.705462 234.631361 110.017622 234.631361 111.385628 
C 234.631361 112.753634 235.174876 114.065794 236.142202 115.03312 
C 237.109529 116.000447 238.421689 116.543961 239.789695 116.543961 
z
" clip-path="url(#p4a6f53a418)" style="fill: #0ea5e9; stroke: #000000"/>
    <path d="M 220.067496 79.385221 
C 221.137731 79.385221 222.164276 78.960012 222.921047 78.203242 
C 223.677817 77.446471 224.103026 76.419926 224.103026 75.349691 
C 224.103026 74.279456 223.677817 73.252911 222.921047 72.496141 
C 222.164276 71.739371 221.137731 71.314162 220.067496 71.314162 
C 218.997261 71.314162 217.970716 71.739371 217.213946 72.496141 
C 216.457175 73.252911 216.031967 74.279456 216.031967 75.349691 
C 216.031967 76.419926 216.457175 77.446471 217.213946 78.203242 
C 217.970716 78.960012 218.997261 79.385221 220.067496 79.385221 
z
" clip-path="url(#p4a6f53a418)" style="fill: #0ea5e9; stroke: #000000"/>
    <path d="M 265.273697 189.233094 
C 266.960407 189.233094 268.57826 188.562957 269.770944 187.370273 
C 270.963627 186.17759 271.633764 184.559736 271.633764 182.873027 
C 271.633764 181.186318 270.963627 179.568464 269.770944 178.375781 
C 268.57826 177.183097 266.960407 176.51296 265.273697 176.51296 
C 263.586988 176.51296 261.969135 177.183097 260.776451 178.375781 
C 259.583767 179.568464 258.91363 181.186318 258.91363 182.873027 
C 258.91363 184.559736 259.583767 186.17759 260.776451 187.370273 
C 261.969135 188.562957 263.586988 189.233094 265.273697 189.233094 
z
" clip-path="url(#p4a6f53a418)" style="fill: #0ea5e9; stroke: #000000"/>
    <path d="M 187.308201 13.305567 
C 187.914312 13.305567 188.495679 13.064756 188.924264 12.636171 
C 189.352849 12.207587 189.593659 11.626219 189.593659 11.020108 
C 189.593659 10.413998 189.352849 9.83263 188.924264 9.404045 
C 188.495679 8.97546 187.914312 8.73465 187.308201 8.73465 
C 186.70209 8.73465 186.120723 8.97546 185.692138 9.404045 
C 185.263553 9.83263 185.022743 10.413998 185.022743 11.020108 
C 185.022743 11.626219 185.263553 12.207587 185.692138 12.636171 
C 186.120723 13.064756 186.70209 13.305567 187.308201 13.305567 
z
" clip-path="url(#p4a6f53a418)" style="fill: #0ea5e9; stroke: #000000"/>
    <path d="M 109.232207 61.456926 
C 109.301788 61.456926 109.368528 61.429282 109.417729 61.380081 
C 109.466929 61.33088 109.494574 61.26414 109.494574 61.19456 
C 109.494574 61.124979 109.466929 61.058239 109.417729 61.009038 
C 109.368528 60.959838 109.301788 60.932193 109.232207 60.932193 
C 109.162627 60.932193 109.095887 60.959838 109.046686 61.009038 
C 108.997485 61.058239 108.969841 61.124979 108.969841 61.19456 
C 108.969841 61.26414 108.997485 61.33088 109.046686 61.380081 
C 109.095887 61.429282 109.162627 61.456926 109.232207 61.456926 
z
" clip-path="url(#p4a6f53a418)" style="fill: #0ea5e9; stroke: #000000"/>
    <path d="M 133.961056 45.598446 
C 134.117308 45.598446 134.267181 45.536367 134.377668 45.42588 
C 134.488155 45.315393 134.550235 45.165519 134.550235 45.009267 
C 134.550235 44.853015 134.488155 44.703142 134.377668 44.592655 
C 134.267181 44.482168 134.117308 44.420088 133.961056 44.420088 
C 133.804804 44.420088 133.65493 44.482168 133.544443 44.592655 
C 133.433956 44.703142 133.371877 44.853015 133.371877 45.009267 
C 133.371877 45.165519 133.433956 45.315393 133.544443 45.42588 
C 133.65493 45.536367 133.804804 45.598446 133.961056 45.598446 
z
" clip-path="url(#p4a6f53a418)" style="fill: #0ea5e9; stroke: #000000"/>
    <path d="M 152.407653 27.053623 
C 152.67284 27.053623 152.927201 26.948263 153.114717 26.760747 
C 153.302233 26.573232 153.407593 26.31887 153.407593 26.053683 
C 153.407593 25.788496 153.302233 25.534134 153.114717 25.346618 
C 152.927201 25.159103 152.67284 25.053743 152.407653 25.053743 
C 152.142465 25.053743 151.888104 25.159103 151.700588 25.346618 
C 151.513073 25.534134 151.407713 25.788496 151.407713 26.053683 
C 151.407713 26.31887 151.513073 26.573232 151.700588 26.760747 
C 151.888104 26.948263 152.142465 27.053623 152.407653 27.053623 
z
" clip-path="url(#p4a6f53a418)" style="fill: #0ea5e9; stroke: #000000"/>
    <path d="M 376.77843 122.771891 
C 377.788722 122.771891 378.757772 122.370497 379.472157 121.656112 
C 380.186542 120.941727 380.587935 119.972677 380.587935 118.962385 
C 380.587935 117.952092 380.186542 116.983042 379.472157 116.268657 
C 378.757772 115.554272 377.788722 115.152879 376.77843 115.152879 
C 375.768137 115.152879 374.799087 115.554272 374.084702 116.268657 
C 373.370317 116.983042 372.968924 117.952092 372.968924 118.962385 
C 372.968924 119.972677 373.370317 120.941727 374.084702 121.656112 
C 374.799087 122.370497 375.768137 122.771891 376.77843 122.771891 
z
" clip-path="url(#p4a6f53a418)" style="fill: #0ea5e9; stroke: #000000"/>
    <path d="M 267.473268 180.899764 
C 269.180989 180.899764 270.818995 180.22128 272.026536 179.013739 
C 273.234076 177.806199 273.912561 176.168192 273.912561 174.460472 
C 273.912561 172.752752 273.234076 171.114745 272.026536 169.907205 
C 270.818995 168.699664 269.180989 168.02118 267.473268 168.02118 
C 265.765548 168.02118 264.127542 168.699664 262.920001 169.907205 
C 261.71246 171.114745 261.033976 172.752752 261.033976 174.460472 
C 261.033976 176.168192 261.71246 177.806199 262.920001 179.013739 
C 264.127542 180.22128 265.765548 180.899764 267.473268 180.899764 
z
" clip-path="url(#p4a6f53a418)" style="fill: #0ea5e9; stroke: #000000"/>
   </g>
   <g id="matplotlib.axis_1">
    <g id="xtick_1">
     <g id="line2d_2">
      <defs>
       <path id="m6c4aa36e7a" d="M 0 0 
L 0 3.5 
" style="stroke: #000000; stroke-width: 0.8"/>
      </defs>
      <g>
       <use xlink:href="#m6c4aa36e7a" x="63.822415" y="267.311194" style="stroke: #000000; stroke-width: 0.8"/>
      </g>
     </g>
     <g id="text_1">
      <!-- 0 -->
      <g transform="translate(60.641165 281.909632) scale(0.1 -0.1)">
       <defs>
        <path id="DejaVuSans-30" d="M 2034 4250 
Q 1547 4250 1301 3770 
Q 1056 3291 1056 2328 
Q 1056 1369 1301 889 
Q 1547 409 2034 409 
Q 2525 409 2770 889 
Q 3016 1369 3016 2328 
Q 3016 3291 2770 3770 
Q 2525 4250 2034 4250 
z
M 2034 4750 
Q 2819 4750 3233 4129 
Q 3647 3509 3647 2328 
Q 3647 1150 3233 529 
Q 2819 -91 2034 -91 
Q 1250 -91 836 529 
Q 422 1150 422 2328 
Q 422 3509 836 4129 
Q 1250 4750 2034 4750 
z
" transform="scale(0.015625)"/>
       </defs>
       <use xlink:href="#DejaVuSans-30"/>
      </g>
     </g>
    </g>
    <g id="xtick_2">
     <g id="line2d_3">
      <g>
       <use xlink:href="#m6c4aa36e7a" x="115.519001" y="267.311194" style="stroke: #000000; stroke-width: 0.8"/>
      </g>
     </g>
     <g id="text_2">
      <!-- 1 -->
      <g transform="translate(112.337751 281.909632) scale(0.1 -0.1)">
       <defs>
        <path id="DejaVuSans-31" d="M 794 531 
L 1825 531 
L 1825 4091 
L 703 3866 
L 703 4441 
L 1819 4666 
L 2450 4666 
L 2450 531 
L 3481 531 
L 3481 0 
L 794 0 
L 794 531 
z
" transform="scale(0.015625)"/>
       </defs>
       <use xlink:href="#DejaVuSans-31"/>
      </g>
     </g>
    </g>
    <g id="xtick_3">
     <g id="line2d_4">
      <g>
       <use xlink:href="#m6c4aa36e7a" x="167.215587" y="267.311194" style="stroke: #000000; stroke-width: 0.8"/>
      </g>
     </g>
     <g id="text_3">
      <!-- 2 -->
      <g transform="translate(164.034337 281.909632) scale(0.1 -0.1)">
       <defs>
        <path id="DejaVuSans-32" d="M 1228 531 
L 3431 531 
L 3431 0 
L 469 0 
L 469 531 
Q 828 903 1448 1529 
Q 2069 2156 2228 2338 
Q 2531 2678 2651 2914 
Q 2772 3150 2772 3378 
Q 2772 3750 2511 3984 
Q 2250 4219 1831 4219 
Q 1534 4219 1204 4116 
Q 875 4013 500 3803 
L 500 4441 
Q 881 4594 1212 4672 
Q 1544 4750 1819 4750 
Q 2544 4750 2975 4387 
Q 3406 4025 3406 3419 
Q 3406 3131 3298 2873 
Q 3191 2616 2906 2266 
Q 2828 2175 2409 1742 
Q 1991 1309 1228 531 
z
" transform="scale(0.015625)"/>
       </defs>
       <use xlink:href="#DejaVuSans-32"/>
      </g>
     </g>
    </g>
    <g id="xtick_4">
     <g id="line2d_5">
      <g>
       <use xlink:href="#m6c4aa36e7a" x="218.912172" y="267.311194" style="stroke: #000000; stroke-width: 0.8"/>
      </g>
     </g>
     <g id="text_4">
      <!-- 3 -->
      <g transform="translate(215.730922 281.909632) scale(0.1 -0.1)">
       <defs>
        <path id="DejaVuSans-33" d="M 2597 2516 
Q 3050 2419 3304 2112 
Q 3559 1806 3559 1356 
Q 3559 666 3084 287 
Q 2609 -91 1734 -91 
Q 1441 -91 1130 -33 
Q 819 25 488 141 
L 488 750 
Q 750 597 1062 519 
Q 1375 441 1716 441 
Q 2309 441 2620 675 
Q 2931 909 2931 1356 
Q 2931 1769 2642 2001 
Q 2353 2234 1838 2234 
L 1294 2234 
L 1294 2753 
L 1863 2753 
Q 2328 2753 2575 2939 
Q 2822 3125 2822 3475 
Q 2822 3834 2567 4026 
Q 2313 4219 1838 4219 
Q 1578 4219 1281 4162 
Q 984 4106 628 3988 
L 628 4550 
Q 988 4650 1302 4700 
Q 1616 4750 1894 4750 
Q 2613 4750 3031 4423 
Q 3450 4097 3450 3541 
Q 3450 3153 3228 2886 
Q 3006 2619 2597 2516 
z
" transform="scale(0.015625)"/>
       </defs>
       <use xlink:href="#DejaVuSans-33"/>
      </g>
     </g>
    </g>
    <g id="xtick_5">
     <g id="line2d_6">
      <g>
       <use xlink:href="#m6c4aa36e7a" x="270.608758" y="267.311194" style="stroke: #000000; stroke-width: 0.8"/>
      </g>
     </g>
     <g id="text_5">
      <!-- 4 -->
      <g transform="translate(267.427508 281.909632) scale(0.1 -0.1)">
       <defs>
        <path id="DejaVuSans-34" d="M 2419 4116 
L 825 1625 
L 2419 1625 
L 2419 4116 
z
M 2253 4666 
L 3047 4666 
L 3047 1625 
L 3713 1625 
L 3713 1100 
L 3047 1100 
L 3047 0 
L 2419 0 
L 2419 1100 
L 313 1100 
L 313 1709 
L 2253 4666 
z
" transform="scale(0.015625)"/>
       </defs>
       <use xlink:href="#DejaVuSans-34"/>
      </g>
     </g>
    </g>
    <g id="xtick_6">
     <g id="line2d_7">
      <g>
       <use xlink:href="#m6c4aa36e7a" x="322.305344" y="267.311194" style="stroke: #000000; stroke-width: 0.8"/>
      </g>
     </g>
     <g id="text_6">
      <!-- 5 -->
      <g transform="translate(319.124094 281.909632) scale(0.1 -0.1)">
       <defs>
        <path id="DejaVuSans-35" d="M 691 4666 
L 3169 4666 
L 3169 4134 
L 1269 4134 
L 1269 2991 
Q 1406 3038 1543 3061 
Q 1681 3084 1819 3084 
Q 2600 3084 3056 2656 
Q 3513 2228 3513 1497 
Q 3513 744 3044 326 
Q 2575 -91 1722 -91 
Q 1428 -91 1123 -41 
Q 819 9 494 109 
L 494 744 
Q 775 591 1075 516 
Q 1375 441 1709 441 
Q 2250 441 2565 725 
Q 2881 1009 2881 1497 
Q 2881 1984 2565 2268 
Q 2250 2553 1709 2553 
Q 1456 2553 1204 2497 
Q 953 2441 691 2322 
L 691 4666 
z
" transform="scale(0.015625)"/>
       </defs>
       <use xlink:href="#DejaVuSans-35"/>
      </g>
     </g>
    </g>
    <g id="xtick_7">
     <g id="line2d_8">
      <g>
       <use xlink:href="#m6c4aa36e7a" x="374.00193" y="267.311194" style="stroke: #000000; stroke-width: 0.8"/>
      </g>
     </g>
     <g id="text_7">
      <!-- 6 -->
      <g transform="translate(370.82068 281.909632) scale(0.1 -0.1)">
       <defs>
        <path id="DejaVuSans-36" d="M 2113 2584 
Q 1688 2584 1439 2293 
Q 1191 2003 1191 1497 
Q 1191 994 1439 701 
Q 1688 409 2113 409 
Q 2538 409 2786 701 
Q 3034 994 3034 1497 
Q 3034 2003 2786 2293 
Q 2538 2584 2113 2584 
z
M 3366 4563 
L 3366 3988 
Q 3128 4100 2886 4159 
Q 2644 4219 2406 4219 
Q 1781 4219 1451 3797 
Q 1122 3375 1075 2522 
Q 1259 2794 1537 2939 
Q 1816 3084 2150 3084 
Q 2853 3084 3261 2657 
Q 3669 2231 3669 1497 
Q 3669 778 3244 343 
Q 2819 -91 2113 -91 
Q 1303 -91 875 529 
Q 447 1150 447 2328 
Q 447 3434 972 4092 
Q 1497 4750 2381 4750 
Q 2619 4750 2861 4703 
Q 3103 4656 3366 4563 
z
" transform="scale(0.015625)"/>
       </defs>
       <use xlink:href="#DejaVuSans-36"/>
      </g>
     </g>
    </g>
    <g id="text_8">
     <!-- Key -->
     <g transform="translate(211.645938 300.146819) scale(0.16 -0.16)">
      <defs>
       <path id="DejaVuSans-4b" d="M 628 4666 
L 1259 4666 
L 1259 2694 
L 3353 4666 
L 4166 4666 
L 1850 2491 
L 4331 0 
L 3500 0 
L 1259 2247 
L 1259 0 
L 628 0 
L 628 4666 
z
" transform="scale(0.015625)"/>
       <path id="DejaVuSans-65" d="M 3597 1894 
L 3597 1613 
L 953 1613 
Q 991 1019 1311 708 
Q 1631 397 2203 397 
Q 2534 397 2845 478 
Q 3156 559 3463 722 
L 3463 178 
Q 3153 47 2828 -22 
Q 2503 -91 2169 -91 
Q 1331 -91 842 396 
Q 353 884 353 1716 
Q 353 2575 817 3079 
Q 1281 3584 2069 3584 
Q 2775 3584 3186 3129 
Q 3597 2675 3597 1894 
z
M 3022 2063 
Q 3016 2534 2758 2815 
Q 2500 3097 2075 3097 
Q 1594 3097 1305 2825 
Q 1016 2553 972 2059 
L 3022 2063 
z
" transform="scale(0.015625)"/>
       <path id="DejaVuSans-79" d="M 2059 -325 
Q 1816 -950 1584 -1140 
Q 1353 -1331 966 -1331 
L 506 -1331 
L 506 -850 
L 844 -850 
Q 1081 -850 1212 -737 
Q 1344 -625 1503 -206 
L 1606 56 
L 191 3500 
L 800 3500 
L 1894 763 
L 2988 3500 
L 3597 3500 
L 2059 -325 
z
" transform="scale(0.015625)"/>
      </defs>
      <use xlink:href="#DejaVuSans-4b"/>
      <use xlink:href="#DejaVuSans-65" transform="translate(60.576172 0)"/>
      <use xlink:href="#DejaVuSans-79" transform="translate(122.099609 0)"/>
     </g>
    </g>
   </g>
   <g id="matplotlib.axis_2">
    <g id="ytick_1">
     <g id="line2d_9">
      <defs>
       <path id="m72406a5cf9" d="M 0 0 
L -3.5 0 
" style="stroke: #000000; stroke-width: 0.8"/>
      </defs>
      <g>
       <use xlink:href="#m72406a5cf9" x="47.589688" y="264.907373" style="stroke: #000000; stroke-width: 0.8"/>
      </g>
     </g>
     <g id="text_9">
      <!-- −10 -->
      <g transform="translate(19.485 268.706592) scale(0.1 -0.1)">
       <defs>
        <path id="DejaVuSans-2212" d="M 678 2272 
L 4684 2272 
L 4684 1741 
L 678 1741 
L 678 2272 
z
" transform="scale(0.015625)"/>
       </defs>
       <use xlink:href="#DejaVuSans-2212"/>
       <use xlink:href="#DejaVuSans-31" transform="translate(83.789062 0)"/>
       <use xlink:href="#DejaVuSans-30" transform="translate(147.412109 0)"/>
      </g>
     </g>
    </g>
    <g id="ytick_2">
     <g id="line2d_10">
      <g>
       <use xlink:href="#m72406a5cf9" x="47.589688" y="227.606208" style="stroke: #000000; stroke-width: 0.8"/>
      </g>
     </g>
     <g id="text_10">
      <!-- −8 -->
      <g transform="translate(25.8475 231.405427) scale(0.1 -0.1)">
       <defs>
        <path id="DejaVuSans-38" d="M 2034 2216 
Q 1584 2216 1326 1975 
Q 1069 1734 1069 1313 
Q 1069 891 1326 650 
Q 1584 409 2034 409 
Q 2484 409 2743 651 
Q 3003 894 3003 1313 
Q 3003 1734 2745 1975 
Q 2488 2216 2034 2216 
z
M 1403 2484 
Q 997 2584 770 2862 
Q 544 3141 544 3541 
Q 544 4100 942 4425 
Q 1341 4750 2034 4750 
Q 2731 4750 3128 4425 
Q 3525 4100 3525 3541 
Q 3525 3141 3298 2862 
Q 3072 2584 2669 2484 
Q 3125 2378 3379 2068 
Q 3634 1759 3634 1313 
Q 3634 634 3220 271 
Q 2806 -91 2034 -91 
Q 1263 -91 848 271 
Q 434 634 434 1313 
Q 434 1759 690 2068 
Q 947 2378 1403 2484 
z
M 1172 3481 
Q 1172 3119 1398 2916 
Q 1625 2713 2034 2713 
Q 2441 2713 2670 2916 
Q 2900 3119 2900 3481 
Q 2900 3844 2670 4047 
Q 2441 4250 2034 4250 
Q 1625 4250 1398 4047 
Q 1172 3844 1172 3481 
z
" transform="scale(0.015625)"/>
       </defs>
       <use xlink:href="#DejaVuSans-2212"/>
       <use xlink:href="#DejaVuSans-38" transform="translate(83.789062 0)"/>
      </g>
     </g>
    </g>
    <g id="ytick_3">
     <g id="line2d_11">
      <g>
       <use xlink:href="#m72406a5cf9" x="47.589688" y="190.305043" style="stroke: #000000; stroke-width: 0.8"/>
      </g>
     </g>
     <g id="text_11">
      <!-- −6 -->
      <g transform="translate(25.8475 194.104262) scale(0.1 -0.1)">
       <use xlink:href="#DejaVuSans-2212"/>
       <use xlink:href="#DejaVuSans-36" transform="translate(83.789062 0)"/>
      </g>
     </g>
    </g>
    <g id="ytick_4">
     <g id="line2d_12">
      <g>
       <use xlink:href="#m72406a5cf9" x="47.589688" y="153.003878" style="stroke: #000000; stroke-width: 0.8"/>
      </g>
     </g>
     <g id="text_12">
      <!-- −4 -->
      <g transform="translate(25.8475 156.803097) scale(0.1 -0.1)">
       <use xlink:href="#DejaVuSans-2212"/>
       <use xlink:href="#DejaVuSans-34" transform="translate(83.789062 0)"/>
      </g>
     </g>
    </g>
    <g id="ytick_5">
     <g id="line2d_13">
      <g>
       <use xlink:href="#m72406a5cf9" x="47.589688" y="115.702713" style="stroke: #000000; stroke-width: 0.8"/>
      </g>
     </g>
     <g id="text_13">
      <!-- −2 -->
      <g transform="translate(25.8475 119.501932) scale(0.1 -0.1)">
       <use xlink:href="#DejaVuSans-2212"/>
       <use xlink:href="#DejaVuSans-32" transform="translate(83.789062 0)"/>
      </g>
     </g>
    </g>
    <g id="ytick_6">
     <g id="line2d_14">
      <g>
       <use xlink:href="#m72406a5cf9" x="47.589688" y="78.401549" style="stroke: #000000; stroke-width: 0.8"/>
      </g>
     </g>
     <g id="text_14">
      <!-- 0 -->
      <g transform="translate(34.227187 82.200767) scale(0.1 -0.1)">
       <use xlink:href="#DejaVuSans-30"/>
      </g>
     </g>
    </g>
    <g id="ytick_7">
     <g id="line2d_15">
      <g>
       <use xlink:href="#m72406a5cf9" x="47.589688" y="41.100384" style="stroke: #000000; stroke-width: 0.8"/>
      </g>
     </g>
     <g id="text_15">
      <!-- 2 -->
      <g transform="translate(34.227187 44.899602) scale(0.1 -0.1)">
       <use xlink:href="#DejaVuSans-32"/>
      </g>
     </g>
    </g>
    <g id="ytick_8">
     <g id="line2d_16">
      <g>
       <use xlink:href="#m72406a5cf9" x="47.589688" y="3.799219" style="stroke: #000000; stroke-width: 0.8"/>
      </g>
     </g>
     <g id="text_16">
      <!-- 4 -->
      <g transform="translate(34.227187 7.598437) scale(0.1 -0.1)">
       <use xlink:href="#DejaVuSans-34"/>
      </g>
     </g>
    </g>
    <g id="text_17">
     <!-- Value -->
     <g transform="translate(12.1575 156.225194) rotate(-90) scale(0.16 -0.16)">
      <defs>
       <path id="DejaVuSans-56" d="M 1831 0 
L 50 4666 
L 709 4666 
L 2188 738 
L 3669 4666 
L 4325 4666 
L 2547 0 
L 1831 0 
z
" transform="scale(0.015625)"/>
       <path id="DejaVuSans-61" d="M 2194 1759 
Q 1497 1759 1228 1600 
Q 959 1441 959 1056 
Q 959 750 1161 570 
Q 1363 391 1709 391 
Q 2188 391 2477 730 
Q 2766 1069 2766 1631 
L 2766 1759 
L 2194 1759 
z
M 3341 1997 
L 3341 0 
L 2766 0 
L 2766 531 
Q 2569 213 2275 61 
Q 1981 -91 1556 -91 
Q 1019 -91 701 211 
Q 384 513 384 1019 
Q 384 1609 779 1909 
Q 1175 2209 1959 2209 
L 2766 2209 
L 2766 2266 
Q 2766 2663 2505 2880 
Q 2244 3097 1772 3097 
Q 1472 3097 1187 3025 
Q 903 2953 641 2809 
L 641 3341 
Q 956 3463 1253 3523 
Q 1550 3584 1831 3584 
Q 2591 3584 2966 3190 
Q 3341 2797 3341 1997 
z
" transform="scale(0.015625)"/>
       <path id="DejaVuSans-6c" d="M 603 4863 
L 1178 4863 
L 1178 0 
L 603 0 
L 603 4863 
z
" transform="scale(0.015625)"/>
       <path id="DejaVuSans-75" d="M 544 1381 
L 544 3500 
L 1119 3500 
L 1119 1403 
Q 1119 906 1312 657 
Q 1506 409 1894 409 
Q 2359 409 2629 706 
Q 2900 1003 2900 1516 
L 2900 3500 
L 3475 3500 
L 3475 0 
L 2900 0 
L 2900 538 
Q 2691 219 2414 64 
Q 2138 -91 1772 -91 
Q 1169 -91 856 284 
Q 544 659 544 1381 
z
M 1991 3584 
L 1991 3584 
z
" transform="scale(0.015625)"/>
      </defs>
      <use xlink:href="#DejaVuSans-56"/>
      <use xlink:href="#DejaVuSans-61" transform="translate(60.658203 0)"/>
      <use xlink:href="#DejaVuSans-6c" transform="translate(121.9375 0)"/>
      <use xlink:href="#DejaVuSans-75" transform="translate(149.720703 0)"/>
      <use xlink:href="#DejaVuSans-65" transform="translate(213.099609 0)"/>
     </g>
    </g>
   </g>
   <g id="LineCollection_11">
    <path d="M 296.457051 257.985903 
L 296.457051 10.524481 
" clip-path="url(#p4a6f53a418)" style="fill: none; stroke: #000000; stroke-width: 1.5"/>
   </g>
   <g id="PathCollection_2">
    <path d="M 296.393802 80.28931 
L 296.5203 80.28931 
L 296.5203 80.162812 
L 296.393802 80.162812 
z
" clip-path="url(#p4a6f53a418)" style="fill: #f97316; stroke: #000000"/>
    <path d="M 291.298718 116.543961 
L 301.615384 116.543961 
L 301.615384 106.227295 
L 291.298718 106.227295 
z
" clip-path="url(#p4a6f53a418)" style="fill: #f97316; stroke: #000000"/>
    <path d="M 292.421522 79.385221 
L 300.492581 79.385221 
L 300.492581 71.314162 
L 292.421522 71.314162 
z
" clip-path="url(#p4a6f53a418)" style="fill: #f97316; stroke: #000000"/>
    <path d="M 290.096984 189.233094 
L 302.817118 189.233094 
L 302.817118 176.51296 
L 290.096984 176.51296 
z
" clip-path="url(#p4a6f53a418)" style="fill: #f97316; stroke: #000000"/>
    <path d="M 294.171593 13.305567 
L 298.74251 13.305567 
L 298.74251 8.73465 
L 294.171593 8.73465 
z
" clip-path="url(#p4a6f53a418)" style="fill: #f97316; stroke: #000000"/>
    <path d="M 296.194685 61.456926 
L 296.719418 61.456926 
L 296.719418 60.932193 
L 296.194685 60.932193 
z
" clip-path="url(#p4a6f53a418)" style="fill: #f97316; stroke: #000000"/>
    <path d="M 295.867872 45.598446 
L 297.04623 45.598446 
L 297.04623 44.420088 
L 295.867872 44.420088 
z
" clip-path="url(#p4a6f53a418)" style="fill: #f97316; stroke: #000000"/>
    <path d="M 295.457111 27.053623 
L 297.456991 27.053623 
L 297.456991 25.053743 
L 295.457111 25.053743 
z
" clip-path="url(#p4a6f53a418)" style="fill: #f97316; stroke: #000000"/>
    <path d="M 292.647545 122.771891 
L 300.266557 122.771891 
L 300.266557 115.152879 
L 292.647545 115.152879 
z
" clip-path="url(#p4a6f53a418)" style="fill: #f97316; stroke: #000000"/>
    <path d="M 290.017759 180.899764 
L 302.896344 180.899764 
L 302.896344 168.02118 
L 290.017759 168.02118 
z
" clip-path="url(#p4a6f53a418)" style="fill: #f97316; stroke: #000000"/>
   </g>
   <g id="patch_3">
    <path d="M 47.589688 267.311194 
L 47.589688 1.199194 
" style="fill: none; stroke: #000000; stroke-width: 0.8; stroke-linejoin: miter; stroke-linecap: square"/>
   </g>
   <g id="patch_4">
    <path d="M 47.589687 267.311194 
L 404.709688 267.311194 
" style="fill: none; stroke: #000000; stroke-width: 0.8; stroke-linejoin: miter; stroke-linecap: square"/>
   </g>
   <g id="text_18">
    <!-- Query -->
    <g transform="translate(289.994978 302.208538) scale(0.16 -0.16)">
     <defs>
      <path id="DejaVuSans-51" d="M 2522 4238 
Q 1834 4238 1429 3725 
Q 1025 3213 1025 2328 
Q 1025 1447 1429 934 
Q 1834 422 2522 422 
Q 3209 422 3611 934 
Q 4013 1447 4013 2328 
Q 4013 3213 3611 3725 
Q 3209 4238 2522 4238 
z
M 3406 84 
L 4238 -825 
L 3475 -825 
L 2784 -78 
Q 2681 -84 2626 -87 
Q 2572 -91 2522 -91 
Q 1538 -91 948 567 
Q 359 1225 359 2328 
Q 359 3434 948 4092 
Q 1538 4750 2522 4750 
Q 3503 4750 4090 4092 
Q 4678 3434 4678 2328 
Q 4678 1516 4351 937 
Q 4025 359 3406 84 
z
" transform="scale(0.015625)"/>
      <path id="DejaVuSans-72" d="M 2631 2963 
Q 2534 3019 2420 3045 
Q 2306 3072 2169 3072 
Q 1681 3072 1420 2755 
Q 1159 2438 1159 1844 
L 1159 0 
L 581 0 
L 581 3500 
L 1159 3500 
L 1159 2956 
Q 1341 3275 1631 3429 
Q 1922 3584 2338 3584 
Q 2397 3584 2469 3576 
Q 2541 3569 2628 3553 
L 2631 2963 
z
" transform="scale(0.015625)"/>
     </defs>
     <use xlink:href="#DejaVuSans-51"/>
     <use xlink:href="#DejaVuSans-75" transform="translate(78.710938 0)"/>
     <use xlink:href="#DejaVuSans-65" transform="translate(142.089844 0)"/>
     <use xlink:href="#DejaVuSans-72" transform="translate(203.613281 0)"/>
     <use xlink:href="#DejaVuSans-79" transform="translate(244.726562 0)"/>
    </g>
   </g>
  </g>
 </g>
 <defs>
  <clipPath id="p4a6f53a418">
   <rect x="47.589688" y="1.199194" width="357.12" height="266.112"/>
  </clipPath>
 </defs>
</svg>
