<?xml version="1.0" encoding="utf-8" standalone="no"?>
<!DOCTYPE svg PUBLIC "-//W3C//DTD SVG 1.1//EN"
  "http://www.w3.org/Graphics/SVG/1.1/DTD/svg11.dtd">
<svg xmlns:xlink="http://www.w3.org/1999/xlink" width="360pt" height="360pt" viewBox="0 0 360 360" xmlns="http://www.w3.org/2000/svg" version="1.1">
 <metadata>
  <rdf:RDF xmlns:dc="http://purl.org/dc/elements/1.1/" xmlns:cc="http://creativecommons.org/ns#" xmlns:rdf="http://www.w3.org/1999/02/22-rdf-syntax-ns#">
   <cc:Work>
    <dc:type rdf:resource="http://purl.org/dc/dcmitype/StillImage"/>
    <dc:date>2025-03-06T14:10:02.454129</dc:date>
    <dc:format>image/svg+xml</dc:format>
    <dc:creator>
     <cc:Agent>
      <dc:title>Matplotlib v3.10.1, https://matplotlib.org/</dc:title>
     </cc:Agent>
    </dc:creator>
   </cc:Work>
  </rdf:RDF>
 </metadata>
 <defs>
  <style type="text/css">*{stroke-linejoin: round; stroke-linecap: butt}</style>
 </defs>
 <g id="figure_1">
  <g id="patch_1">
   <path d="M 0 360 
L 360 360 
L 360 0 
L 0 0 
L 0 360 
z
" style="fill: none"/>
  </g>
  <g id="axes_1">
   <g id="patch_2">
    <path d="M 10.8 349.2 
L 344.52 349.2 
L 344.52 10.8 
L 10.8 10.8 
L 10.8 349.2 
z
" style="fill: none"/>
   </g>
   <g id="Quiver_1">
    <path d="M 177.094082 178.883817 
L 333.908437 99.377078 
L 331.660418 97.710631 
L 344.52 95.4 
L 335.055926 104.407728 
L 335.040273 101.609444 
L 178.225918 181.116183 
L 177.094082 178.883817 
" clip-path="url(#peb0f56edc0)" style="fill: #d3d3d3"/>
    <path d="M 176.471136 180.390807 
L 138.273402 64.19058 
L 136.286482 66.161058 
L 135.945 53.1 
L 143.419664 63.816214 
L 140.651129 63.408965 
L 178.848864 179.609193 
L 176.471136 180.390807 
" clip-path="url(#peb0f56edc0)" style="fill: #d3d3d3"/>
    <path d="M 178.705698 180.687491 
L 101.463113 298.176211 
L 104.241999 298.505495 
L 94.23 306.9 
L 97.967813 294.380551 
L 99.371718 296.80123 
L 176.614302 179.312509 
L 178.705698 180.687491 
" clip-path="url(#peb0f56edc0)" style="fill: #d3d3d3"/>
   </g>
   <g id="Quiver_2">
    <path d="M 177.094082 178.883817 
L 267.164437 133.217078 
L 264.916418 131.550631 
L 277.776 129.24 
L 268.311926 138.247728 
L 268.296273 135.449444 
L 178.225918 181.116183 
L 177.094082 178.883817 
" clip-path="url(#peb0f56edc0)" style="fill: none; stroke-dasharray: 3.7,1.6; stroke-dashoffset: 0; stroke: #ff0000"/>
   </g>
   <g id="Quiver_3">
    <path d="M 276.587136 129.630807 
L 275.932902 127.64058 
L 273.945982 129.611058 
L 273.6045 116.55 
L 281.079164 127.266214 
L 278.310629 126.858965 
L 278.964864 128.849193 
L 276.587136 129.630807 
" clip-path="url(#peb0f56edc0)" style="fill: none; stroke-dasharray: 3.7,1.6; stroke-dashoffset: 0; stroke: #008000"/>
   </g>
   <g id="Quiver_4">
    <path d="M 274.650198 117.237491 
L 255.808613 145.896211 
L 258.587499 146.225495 
L 248.5755 154.62 
L 252.313313 142.100551 
L 253.717218 144.52123 
L 272.558802 115.862509 
L 274.650198 117.237491 
" clip-path="url(#peb0f56edc0)" style="fill: none; stroke-dasharray: 3.7,1.6; stroke-dashoffset: 0; stroke: #0000ff"/>
   </g>
   <g id="Quiver_5">
    <defs>
     <path id="m8b438cd091" d="M -0.42169 -1.178264 
L 59.889438 -22.763057 
L 57.867796 -24.697895 
L 70.9155 -25.38 
L 60.397933 -17.628313 
L 60.732818 -20.40653 
L 0.42169 1.178264 
L -0.42169 -1.178264 
"/>
    </defs>
    <g clip-path="url(#peb0f56edc0)">
     <use xlink:href="#m8b438cd091" x="177.66" y="180" style="fill: #ff0000"/>
    </g>
   </g>
   <g id="Quiver_6">
    <path d="M 176.471136 180.390807 
L 159.130902 127.64058 
L 157.143982 129.611058 
L 156.8025 116.55 
L 164.277164 127.266214 
L 161.508629 126.858965 
L 178.848864 179.609193 
L 176.471136 180.390807 
" clip-path="url(#peb0f56edc0)" style="fill: none; stroke-dasharray: 3.7,1.6; stroke-dashoffset: 0; stroke: #008000"/>
   </g>
   <g id="Quiver_7">
    <path d="M 157.848198 117.237491 
L 147.349613 133.206211 
L 150.128499 133.535495 
L 140.1165 141.93 
L 143.854313 129.410551 
L 145.258218 131.83123 
L 155.756802 115.862509 
L 157.848198 117.237491 
" clip-path="url(#peb0f56edc0)" style="fill: none; stroke-dasharray: 3.7,1.6; stroke-dashoffset: 0; stroke: #0000ff"/>
   </g>
   <g id="Quiver_8">
    <path d="M 139.550582 140.813817 
L 179.562937 120.527078 
L 177.314918 118.860631 
L 190.1745 116.55 
L 180.710426 125.557728 
L 180.694773 122.759444 
L 140.682418 143.046183 
L 139.550582 140.813817 
" clip-path="url(#peb0f56edc0)" style="fill: none; stroke-dasharray: 3.7,1.6; stroke-dashoffset: 0; stroke: #ff0000"/>
   </g>
   <g id="Quiver_9">
    <defs>
     <path id="ma321eedb28" d="M -1.227796 -0.242163 
L 9.107234 -52.641995 
L 6.409478 -51.898526 
L 12.5145 -63.45 
L 13.776257 -50.445546 
L 11.562827 -52.157669 
L 1.227796 0.242163 
L -1.227796 -0.242163 
"/>
    </defs>
    <g clip-path="url(#peb0f56edc0)">
     <use xlink:href="#ma321eedb28" x="177.66" y="180" style="fill: #008000"/>
    </g>
   </g>
   <g id="Quiver_10">
    <path d="M 178.705698 180.687491 
L 126.492113 260.106211 
L 129.270999 260.435495 
L 119.259 268.83 
L 122.996813 256.310551 
L 124.400718 258.73123 
L 176.614302 179.312509 
L 178.705698 180.687491 
" clip-path="url(#peb0f56edc0)" style="fill: none; stroke-dasharray: 3.7,1.6; stroke-dashoffset: 0; stroke: #0000ff"/>
   </g>
   <g id="Quiver_11">
    <path d="M 118.693082 267.713817 
L 142.019437 255.887078 
L 139.771418 254.220631 
L 152.631 251.91 
L 143.166926 260.917728 
L 143.151273 258.119444 
L 119.824918 269.946183 
L 118.693082 267.713817 
" clip-path="url(#peb0f56edc0)" style="fill: none; stroke-dasharray: 3.7,1.6; stroke-dashoffset: 0; stroke: #ff0000"/>
   </g>
   <g id="Quiver_12">
    <path d="M 151.442136 252.300807 
L 150.787902 250.31058 
L 148.800982 252.281058 
L 148.4595 239.22 
L 155.934164 249.936214 
L 153.165629 249.528965 
L 153.819864 251.519193 
L 151.442136 252.300807 
" clip-path="url(#peb0f56edc0)" style="fill: none; stroke-dasharray: 3.7,1.6; stroke-dashoffset: 0; stroke: #008000"/>
   </g>
   <g id="Quiver_13">
    <defs>
     <path id="mef188febbf" d="M 1.122418 0.553448 
L -23.097052 49.671683 
L -20.298768 49.656161 
L -29.2005 59.22 
L -27.033278 46.335474 
L -25.341889 48.564788 
L -1.122418 -0.553448 
L 1.122418 0.553448 
"/>
    </defs>
    <g clip-path="url(#peb0f56edc0)">
     <use xlink:href="#mef188febbf" x="177.66" y="180" style="fill: #0000ff"/>
    </g>
   </g>
   <g id="matplotlib.axis_1"/>
   <g id="matplotlib.axis_2"/>
   <g id="patch_3">
    <path d="M 177.66 349.2 
L 177.66 10.8 
" style="fill: none; stroke: #000000; stroke-width: 0.8; stroke-linejoin: miter; stroke-linecap: square"/>
   </g>
   <g id="patch_4">
    <path d="M 344.52 349.2 
L 344.52 10.8 
" style="fill: none"/>
   </g>
   <g id="patch_5">
    <path d="M 10.8 180 
L 344.52 180 
" style="fill: none; stroke: #000000; stroke-width: 0.8; stroke-linejoin: miter; stroke-linecap: square"/>
   </g>
   <g id="patch_6">
    <path d="M 10.8 10.8 
L 344.52 10.8 
" style="fill: none"/>
   </g>
   <g id="text_1">
    <!-- I -->
    <g style="fill: #808080" transform="translate(344.52 95.4) scale(0.16 -0.16)">
     <defs>
      <path id="DejaVuSans-49" d="M 628 4666 
L 1259 4666 
L 1259 0 
L 628 0 
L 628 4666 
z
" transform="scale(0.015625)"/>
     </defs>
     <use xlink:href="#DejaVuSans-49"/>
    </g>
   </g>
   <g id="text_2">
    <!-- am -->
    <g style="fill: #808080" transform="translate(135.945 53.1) scale(0.16 -0.16)">
     <defs>
      <path id="DejaVuSans-61" d="M 2194 1759 
Q 1497 1759 1228 1600 
Q 959 1441 959 1056 
Q 959 750 1161 570 
Q 1363 391 1709 391 
Q 2188 391 2477 730 
Q 2766 1069 2766 1631 
L 2766 1759 
L 2194 1759 
z
M 3341 1997 
L 3341 0 
L 2766 0 
L 2766 531 
Q 2569 213 2275 61 
Q 1981 -91 1556 -91 
Q 1019 -91 701 211 
Q 384 513 384 1019 
Q 384 1609 779 1909 
Q 1175 2209 1959 2209 
L 2766 2209 
L 2766 2266 
Q 2766 2663 2505 2880 
Q 2244 3097 1772 3097 
Q 1472 3097 1187 3025 
Q 903 2953 641 2809 
L 641 3341 
Q 956 3463 1253 3523 
Q 1550 3584 1831 3584 
Q 2591 3584 2966 3190 
Q 3341 2797 3341 1997 
z
" transform="scale(0.015625)"/>
      <path id="DejaVuSans-6d" d="M 3328 2828 
Q 3544 3216 3844 3400 
Q 4144 3584 4550 3584 
Q 5097 3584 5394 3201 
Q 5691 2819 5691 2113 
L 5691 0 
L 5113 0 
L 5113 2094 
Q 5113 2597 4934 2840 
Q 4756 3084 4391 3084 
Q 3944 3084 3684 2787 
Q 3425 2491 3425 1978 
L 3425 0 
L 2847 0 
L 2847 2094 
Q 2847 2600 2669 2842 
Q 2491 3084 2119 3084 
Q 1678 3084 1418 2786 
Q 1159 2488 1159 1978 
L 1159 0 
L 581 0 
L 581 3500 
L 1159 3500 
L 1159 2956 
Q 1356 3278 1631 3431 
Q 1906 3584 2284 3584 
Q 2666 3584 2933 3390 
Q 3200 3197 3328 2828 
z
" transform="scale(0.015625)"/>
     </defs>
     <use xlink:href="#DejaVuSans-61"/>
     <use xlink:href="#DejaVuSans-6d" transform="translate(61.279297 0)"/>
    </g>
   </g>
   <g id="text_3">
    <!-- Sam -->
    <g style="fill: #808080" transform="translate(94.23 319.59) scale(0.16 -0.16)">
     <defs>
      <path id="DejaVuSans-53" d="M 3425 4513 
L 3425 3897 
Q 3066 4069 2747 4153 
Q 2428 4238 2131 4238 
Q 1616 4238 1336 4038 
Q 1056 3838 1056 3469 
Q 1056 3159 1242 3001 
Q 1428 2844 1947 2747 
L 2328 2669 
Q 3034 2534 3370 2195 
Q 3706 1856 3706 1288 
Q 3706 609 3251 259 
Q 2797 -91 1919 -91 
Q 1588 -91 1214 -16 
Q 841 59 441 206 
L 441 856 
Q 825 641 1194 531 
Q 1563 422 1919 422 
Q 2459 422 2753 634 
Q 3047 847 3047 1241 
Q 3047 1584 2836 1778 
Q 2625 1972 2144 2069 
L 1759 2144 
Q 1053 2284 737 2584 
Q 422 2884 422 3419 
Q 422 4038 858 4394 
Q 1294 4750 2059 4750 
Q 2388 4750 2728 4690 
Q 3069 4631 3425 4513 
z
" transform="scale(0.015625)"/>
     </defs>
     <use xlink:href="#DejaVuSans-53"/>
     <use xlink:href="#DejaVuSans-61" transform="translate(63.476562 0)"/>
     <use xlink:href="#DejaVuSans-6d" transform="translate(124.755859 0)"/>
    </g>
   </g>
   <g id="text_4">
    <!-- I$^\prime$ -->
    <g transform="translate(256.9185 163.08) scale(0.16 -0.16)">
     <defs>
      <path id="Cmsy10-30" d="M 225 347 
Q 184 359 184 409 
L 966 3316 
Q 1003 3434 1093 3506 
Q 1184 3578 1300 3578 
Q 1450 3578 1564 3479 
Q 1678 3381 1678 3231 
Q 1678 3166 1644 3084 
L 488 319 
Q 466 275 428 275 
Q 394 275 320 306 
Q 247 338 225 347 
z
" transform="scale(0.015625)"/>
     </defs>
     <use xlink:href="#DejaVuSans-49" transform="translate(0 0.584375)"/>
     <use xlink:href="#Cmsy10-30" transform="translate(30.449219 38.865625) scale(0.7)"/>
    </g>
   </g>
   <g id="text_5">
    <!-- am$^\prime$ -->
    <g transform="translate(198.5175 125.01) scale(0.16 -0.16)">
     <use xlink:href="#DejaVuSans-61" transform="translate(0 0.584375)"/>
     <use xlink:href="#DejaVuSans-6d" transform="translate(61.279297 0.584375)"/>
     <use xlink:href="#Cmsy10-30" transform="translate(159.648438 38.865625) scale(0.7)"/>
    </g>
   </g>
   <g id="text_6">
    <!-- Sam$^\prime$ -->
    <g transform="translate(156.8025 247.68) scale(0.16 -0.16)">
     <use xlink:href="#DejaVuSans-53" transform="translate(0 0.584375)"/>
     <use xlink:href="#DejaVuSans-61" transform="translate(63.476562 0.584375)"/>
     <use xlink:href="#DejaVuSans-6d" transform="translate(124.755859 0.584375)"/>
     <use xlink:href="#Cmsy10-30" transform="translate(223.125 38.865625) scale(0.7)"/>
    </g>
   </g>
  </g>
 </g>
 <defs>
  <clipPath id="peb0f56edc0">
   <rect x="10.8" y="10.8" width="333.72" height="338.4"/>
  </clipPath>
 </defs>
</svg>
